<?xml version="1.0" encoding="UTF-8"?>
<svg width="13px" height="13px" viewBox="0 0 13 13" version="1.1" xmlns="http://www.w3.org/2000/svg" xmlns:xlink="http://www.w3.org/1999/xlink">
    <!-- Generator: Sketch 51.3 (57544) - http://www.bohemiancoding.com/sketch -->
    <title>icn_ios_urgent_filled</title>
    <desc>Created with Sketch.</desc>
    <defs></defs>
    <g id="1.-Priority-messaging" stroke="none" stroke-width="1" fill="none" fill-rule="evenodd">
        <g id="prioritymessaging03" transform="translate(-348.000000, -185.000000)" fill="#C4314B" fill-rule="nonzero">
            <g id="icn_ios_urgent_filled" transform="translate(348.000000, 185.000000)">
                <path d="M4.71680959,12.0202754 L7.10686076,11.5418248 C7.23898809,12.2017995 6.81105152,12.8439291 6.15106483,12.976054 C5.49107815,13.1081789 4.84893692,12.6802501 4.71680959,12.0202754 Z M0.972216848,11.9415677 L10.5331897,10.0278242 C10.745858,9.98498407 10.929099,9.86201806 11.0497036,9.68108489 C11.16954,9.50021081 11.2123809,9.28358736 11.16954,9.07175019 C11.0822627,8.63300793 10.6530261,8.34021765 10.2142168,8.43381599 C10.0007804,8.47825157 9.78498025,8.43458416 9.60327561,8.31321358 C9.42239825,8.19337933 9.30019819,8.01014165 9.25735726,7.79747723 L8.6194115,4.61028803 C8.40757048,3.55346578 7.795802,2.63899101 6.89608338,2.03479713 C5.98998294,1.42741239 4.90412786,1.21084803 3.83854098,1.42428063 C1.64189445,1.86420468 0.212898295,4.00887137 0.652475783,6.20506443 L1.29042155,9.39148545 C1.3781125,9.83105497 1.09246691,10.2602838 0.654071238,10.3483867 C0.441048407,10.3904587 0.25733468,10.5134247 0.137143713,10.6935307 C0.0165391082,10.8744047 -0.0267154584,11.0910282 0.0161254717,11.3044608 C0.0934755095,11.6900812 0.433898403,11.9574629 0.81355768,11.9574629 C0.865912251,11.9574038 0.919035004,11.9518494 0.972216848,11.9415677 Z M10.8497399,5.43388258 C10.8497399,4.10530603 10.4427215,2.84574645 9.67146655,1.79205596 C9.53898467,1.60917282 9.28424364,1.57188712 9.10413446,1.70359843 C8.9232571,1.83607791 8.88354799,2.09040069 9.01608896,2.27127477 C9.68417111,3.18527682 10.0372395,4.27861661 10.0372395,5.43388258 C10.0372395,5.65842407 10.2189441,5.84012541 10.4434897,5.84012541 C10.6680352,5.84012541 10.8497399,5.65842407 10.8497399,5.43388258 Z M13,5.43388258 C13,3.49159869 12.3406633,1.66389004 11.0925445,0.148471333 C10.9489535,-0.0260801317 10.6926761,-0.0494797187 10.5212533,0.0929268586 C10.3474669,0.235747065 10.3228851,0.491606185 10.4657079,0.664975852 C11.5923948,2.03326079 12.1874996,3.68198623 12.1874996,5.43388258 C12.1874996,5.65842407 12.3692042,5.84012541 12.5937498,5.84012541 C12.8182954,5.84012541 13,5.65842407 13,5.43388258 Z" id="Shape"></path>
            </g>
        </g>
    </g>
</svg>