<svg id="Layer_1" data-name="Layer 1" xmlns="http://www.w3.org/2000/svg" viewBox="0 0 37 35" width="37" height="35"><defs><style>.cls-2{isolation:isolate}.cls-3{fill:#6f6d6d}</style></defs><path id="Container" d="M-19-8h75v50h-75z" fill="none"/><g class="cls-2"><path class="cls-3" d="M3.985 33l2.749-7.158h1.021L10.685 33h-1.08l-.835-2.168H5.777L4.991 33zm2.065-2.939h2.428l-.748-1.983q-.342-.9-.508-1.484a9.133 9.133 0 0 1-.386 1.367zM14.713 31.1l.864.112a2.236 2.236 0 0 1-.725 1.4 2.108 2.108 0 0 1-1.433.506 2.229 2.229 0 0 1-1.711-.7 2.826 2.826 0 0 1-.647-2 3.611 3.611 0 0 1 .278-1.47 1.945 1.945 0 0 1 .847-.945 2.525 2.525 0 0 1 1.238-.314 2.15 2.15 0 0 1 1.382.428 1.957 1.957 0 0 1 .688 1.213l-.854.132a1.42 1.42 0 0 0-.432-.786 1.118 1.118 0 0 0-.75-.264 1.362 1.362 0 0 0-1.079.477 2.256 2.256 0 0 0-.415 1.506 2.335 2.335 0 0 0 .4 1.519 1.3 1.3 0 0 0 1.045.474 1.229 1.229 0 0 0 .864-.317 1.578 1.578 0 0 0 .44-.971zM18.248 32.214l.127.776a3.285 3.285 0 0 1-.664.078 1.507 1.507 0 0 1-.742-.151.847.847 0 0 1-.371-.4 3.149 3.149 0 0 1-.107-1.038V28.5h-.645v-.684h.645V26.53l.873-.53v1.812h.884v.688h-.884v3.03a1.534 1.534 0 0 0 .046.483.366.366 0 0 0 .151.171.587.587 0 0 0 .3.063 2.916 2.916 0 0 0 .387-.033zM19.112 26.853v-1.011h.879v1.011zm0 6.147v-5.186h.879V33zM22.77 33l-1.97-5.186h.928l1.113 3.105c.121.335.23.684.332 1.045q.117-.41.327-.986l1.152-3.164h.9L23.59 33zM26.334 26.853v-1.011h.879v1.011zm0 6.147v-5.186h.879V33zM30.47 32.214l.127.776a3.281 3.281 0 0 1-.664.078 1.506 1.506 0 0 1-.742-.151.845.845 0 0 1-.371-.4 3.162 3.162 0 0 1-.107-1.038V28.5h-.645v-.684h.645V26.53l.873-.53v1.812h.884v.688h-.884v3.03a1.514 1.514 0 0 0 .047.483.364.364 0 0 0 .15.171.589.589 0 0 0 .3.063 2.909 2.909 0 0 0 .387-.033zM31.29 35l-.1-.825a1.979 1.979 0 0 0 .5.078.961.961 0 0 0 .469-.1.8.8 0 0 0 .288-.273 4.191 4.191 0 0 0 .269-.654c.016-.049.043-.12.078-.215l-1.968-5.2h.947l1.079 3q.211.571.376 1.2a11.826 11.826 0 0 1 .361-1.182l1.111-3.015h.879l-1.973 5.273a10.256 10.256 0 0 1-.493 1.177 1.737 1.737 0 0 1-.537.638 1.271 1.271 0 0 1-.723.2A1.769 1.769 0 0 1 31.29 35z"/></g><g class="cls-2"><path class="cls-3" d="M21.98 1a7.289 7.289 0 0 1 3.384 6.145v5.231a1.269 1.269 0 0 0 .188.741 1.232 1.232 0 0 0 .531.419 3.068 3.068 0 0 0 .655.215 1.921 1.921 0 0 1 1.171.612 1.186 1.186 0 0 1 .2.763 1.309 1.309 0 0 1-.408.956 1.44 1.44 0 0 1-.451.306 1.262 1.262 0 0 1-.516.113h-16.5a1.434 1.434 0 0 1-1.375-1.375 1.273 1.273 0 0 1 .188-.741 1.234 1.234 0 0 1 .532-.419 3.068 3.068 0 0 1 .655-.215 1.922 1.922 0 0 0 1.171-.612 1.186 1.186 0 0 0 .2-.763v-5.5A6.9 6.9 0 0 1 15.03.945 6.667 6.667 0 0 1 18.479 0a6.524 6.524 0 0 1 3.501 1zm-.258 17.08a.661.661 0 0 1 .2.483 3.306 3.306 0 0 1-.269 1.321 3.53 3.53 0 0 1-1.848 1.848 3.358 3.358 0 0 1-2.632 0 3.57 3.57 0 0 1-1.858-1.858 3.274 3.274 0 0 1-.269-1.311.7.7 0 0 1 .688-.687h5.5a.662.662 0 0 1 .489.203z"/></g></svg>