<svg xmlns="http://www.w3.org/2000/svg" viewBox="0 0 2048 2048"><path d="M1275 98q122 34 231 98 107 63 194.5 150.5T1851 541q64 109 98 231t34 252q0 134-32 256-39 152-115 240-91 106-224 106-67 0-129.5-22.5T1373 1539q-45-39-70-91t-25-113q0-17 1-25-51 47-118 72.5t-137 25.5q-77 0-146.5-30T754 1294t-84-123.5-30-146.5 30-147 84-124 123.5-83.5T1024 640q70 0 137 25.5t118 72.5v-42q0-44 10-64 15-30 54-30 26 0 45 19t19 45v657q0 41 17 74t47 56q28 22 65 33.5t76 11.5q88 0 148-91 49-74 75-197 20-93 20-186 0-112-29.5-218T1741 605q-55-92-131-168t-168-131q-95-55-201-84.5T1023 192t-218 29.5T605 306q-93 55-169 131T306 605q-56 95-85.5 201T191 1024t29.5 218 85.5 200q54 93 130 169t169 130q94 56 200 85.5t218 29.5q78 0 149.5-17t183.5-52q16-6 25-6 26 0 45 19t19 45q0 48-92 83-72 28-185 43-90 13-145 13-130 0-252-34t-231-98q-107-63-194.5-150.5T195 1507q-64-109-98-231t-34-252 34-252 98-231q63-107 150.5-194.5T540 196q109-64 231-98t252-34 252 34zM926.5 788Q880 808 844 844t-56 82.5-20 97.5 20 97.5 56 82.5 82.5 56 97.5 20q50 0 96-20t83-56q36-35 56-81t20-97q0-52-19.5-99t-54.5-83-82-56-99-20q-51 0-97.5 20z"/></svg>