<svg id="Layer_1" data-name="Layer 1" xmlns="http://www.w3.org/2000/svg" viewBox="0 0 22 14" width="22" height="14"><defs><style>.cls-1{isolation:isolate;}.cls-2{fill:#6264a7;}</style></defs><title>camera</title><g class="cls-1"><path class="cls-2" d="M13.84.29a2.27,2.27,0,0,1,.67.45,2.27,2.27,0,0,1,.45.67,1.94,1.94,0,0,1,.16.78v9.63a1.94,1.94,0,0,1-.16.78,2.14,2.14,0,0,1-.45.66,2.18,2.18,0,0,1-.67.46,1.94,1.94,0,0,1-.78.16H2.5A1.94,1.94,0,0,1,.75,12.7,7,7,0,0,1,.1,10.2,22.06,22.06,0,0,1,0,7.89V6.11A22.19,22.19,0,0,1,.1,3.79a7.18,7.18,0,0,1,.66-2.5A1.94,1.94,0,0,1,2.5.13H13.06A1.94,1.94,0,0,1,13.84.29ZM2.5,1.5Q2,1.5,1.68,2.72a14,14,0,0,0-.27,2.46q0,.61,0,1.1V7.71a23.64,23.64,0,0,0,.12,2.36A5.1,5.1,0,0,0,2,12.16a.57.57,0,0,0,.49.34H13.06a.7.7,0,0,0,.69-.69V2.19a.7.7,0,0,0-.69-.69Zm19.29.2a.66.66,0,0,1,.2.48v9.63a.7.7,0,0,1-.69.69.64.64,0,0,1-.47-.19L17.36,9a2.73,2.73,0,0,1-.63-.91,2.7,2.7,0,0,1,0-2.16A2.73,2.73,0,0,1,17.36,5l3.48-3.32a.64.64,0,0,1,.47-.19A.66.66,0,0,1,21.8,1.7ZM18.3,6a1.24,1.24,0,0,0-.32.45,1.36,1.36,0,0,0,0,1.09A1.24,1.24,0,0,0,18.3,8l2.32,2.21V3.8Z"/></g></svg>