<svg xmlns="http://www.w3.org/2000/svg" viewBox="0 0 2048 2048"><path d="M1824 26q44 26 70 70t26 96v1536q0 52-26 96t-70 70-96 26H320q-52 0-96-26t-70-70-26-96V768h128v256h1536V192q0-26-19-45t-45-19H140q20-56 69.5-92T320 0h1408q52 0 96 26zm-416 1510H512v-128h896v128zM256 1152v576q0 26 19 45t45 19h1408q26 0 45-19t19-45v-576H256zm-16-842.5q37 21.5 58.5 58.5t21.5 80-21.5 80-58.5 58.5-80 21.5-80-21.5T21.5 528 0 448t21.5-80T80 309.5t80-21.5 80 21.5zM1280 768H512V640h768v128zm256-256H512V384h1024v128z"/></svg>