<svg xmlns="http://www.w3.org/2000/svg" viewBox="0 0 2048 2048"><path d="M1824 26q44 26 70 70t26 96v1088l-128 128v-256H256v576q0 26 19 45t45 19h1088v128H320q-52 0-96-26t-70-70-26-96V768h128v256h1536V192q0-26-19-45t-45-19H140q20-56 69.5-92T320 0h1408q52 0 96 26zm-416 1510H512v-128h896v128zM240 309.5q37 21.5 58.5 58.5t21.5 80-21.5 80-58.5 58.5-80 21.5-80-21.5T21.5 528 0 448t21.5-80T80 309.5t80-21.5 80 21.5zM2048 1536q0 26-19 45l-147 147 147 147q19 18 19 45 0 26-19 45-17 19-45 19-26 0-45-19l-147-147-147 147q-17 19-45 19-26 0-45-19-19-21-19-45 0-26 19-45l147-147-147-147q-19-21-19-45 0-26 19-45t45-19q27 0 45 19l147 147 147-147q19-19 45-19 27 0 45 19 19 18 19 45zm-768-768H512V640h768v128zm256-256H512V384h1024v128z"/></svg>