<svg data-name="Layer 1" xmlns="http://www.w3.org/2000/svg" viewBox="0 0 20 20" width="20" height="20"><path d="M8.05 2.95a.69.69 0 0 1-.48 1.17h-5.5a.7.7 0 0 0-.69.69v12.37a.7.7 0 0 0 .69.69h12.37a.7.7 0 0 0 .69-.69v-5.5a.69.69 0 0 1 1.38 0v5.5a1.94 1.94 0 0 1-.16.78 2.14 2.14 0 0 1-.45.66 2.17 2.17 0 0 1-.67.46 1.93 1.93 0 0 1-.78.16H2.07a1.93 1.93 0 0 1-.78-.16 2 2 0 0 1-.65-.46 2 2 0 0 1-.46-.66 1.94 1.94 0 0 1-.16-.78V4.81a1.94 1.94 0 0 1 .16-.78 2.17 2.17 0 0 1 .46-.67 2.13 2.13 0 0 1 .66-.45 1.93 1.93 0 0 1 .78-.16h5.5a.66.66 0 0 1 .47.2zm9.5-2.74a2.85 2.85 0 0 1 1.49 1.49 2.61 2.61 0 0 1 .21 1 2.75 2.75 0 0 1-.81 1.94l-8.17 8.17a1.45 1.45 0 0 1-.38.17q-.63.23-1.72.52t-1.8.42a2.7 2.7 0 0 1-.48.08.72.72 0 0 1-.69-.69 2.65 2.65 0 0 1 .08-.48q.13-.69.42-1.79t.52-1.73a1.43 1.43 0 0 1 .17-.38L14.56.76A2.74 2.74 0 0 1 16.5 0a2.62 2.62 0 0 1 1.05.21zm-1.57 1.27a1.27 1.27 0 0 0-.44.28l-8 8-.66 2.6 2.6-.66 8-8a1.37 1.37 0 0 0-1-2.33 1.41 1.41 0 0 0-.5.11z" fill="#6264a7"/></svg>