<svg xmlns="http://www.w3.org/2000/svg" viewBox="0 0 2048 2048"><path d="M1408 1655q0 72-34.5 124t-94.5 84q-54 29-121 43t-134 14q-66 0-132.5-14.5T771 1862q-61-32-96-84t-35-123V768h768v887zM493 915q19 19 19 45t-19 45-45 19H128v382q0 64 62 98 48 28 132 35 47 5 126 5 26 0 45 19t19 45q0 25-19 44.5t-45 19.5h-64q-67 0-134-14t-120-43q-61-33-95.5-85T0 1406V896h448q26 0 45 19zM353.5 276q46.5 20 82.5 56t56 82.5 20 97.5-20 97.5-56 82.5-82.5 56-97.5 20-97.5-20T76 692t-56-82.5T0 512t20-97.5T76 332t82.5-56 97.5-20 97.5 20zM167 422q-18 18-28.5 42T128 512q0 52 39 89 37 39 89 39 24 0 48-10.5t42-28.5q38-38 38-89 0-24-10-48t-28-42-42-28-48-10q-51 0-89 38zm601 474v759q0 78 96 112 65 25 160 25t161-25q95-35 95-112V896H768zm1280 510q0 72-34.5 124t-94.5 85q-54 29-121 43t-134 14h-64q-26 0-45-19.5t-19-44.5q0-26 19-45t45-19q79 0 127-5 83-7 132-35 61-34 61-98v-382h-320q-26 0-45-19t-19-45 19-45 45-19h448v510zM1121.5 148q46.5 20 82.5 56t56 82.5 20 97.5-20 97.5-56 82.5-82.5 56-97.5 20-97.5-20-82.5-56-56-82.5-20-97.5 20-97.5 56-82.5 82.5-56 97.5-20 97.5 20zM935 294q-18 18-28.5 42T896 384q0 52 39 89 37 39 89 39 24 0 48-10.5t42-28.5q38-38 38-89 0-24-10-48t-28-42-42-28-48-10q-51 0-89 38zm954.5-18q46.5 20 82.5 56t56 82.5 20 97.5-20 97.5-56 82.5-82.5 56-97.5 20-97.5-20-82.5-56-56-82.5-20-97.5 20-97.5 56-82.5 82.5-56 97.5-20 97.5 20zM1703 422q-18 18-28.5 42t-10.5 48q0 52 39 89 37 39 89 39 24 0 48-10.5t42-28.5q38-38 38-89 0-24-10-48t-28-42-42-28-48-10q-51 0-89 38z"/></svg>