<svg xmlns="http://www.w3.org/2000/svg" viewBox="0 0 2048 2048"><path d="M1543.5 527q34.5 15 62.5 42 27 28 42 62.5t15 72.5v1095q0 118-126 180-98 48-269 62-90 7-206 7h-78q-116 0-205-7-172-14-269-62-127-62-127-180V704q0-38 15-72.5t43-62.5q27-27 61.5-42t72.5-15h896q38 0 72.5 15zM895 1664H767V896h128v768zM575 640q-26 0-45 19t-19 45v1095q0 30 29.5 51t83.5 36q87 24 226 31 57 3 104 3h138q105 0 221-13 131-15 191-56 31-21 31-52V704q0-26-19-45t-45-19H575zm704 1024h-128V896h128v768zM1107.5 9q44.5 9 81.5 27 41 21 65.5 54t24.5 76v90h384q26 0 45 19t19 45-19 45-45 19H383q-26 0-45-19t-19-45 19-45 45-19h384v-90q0-44 24.5-76.5T858 36q36-18 79.5-27t85.5-9q40 0 84.5 9zM953 136q-46 11-58 33v87h256v-90q-15-20-59-31-29-7-69-7-37 0-70 8z"/></svg>