<svg data-name="Layer 1" xmlns="http://www.w3.org/2000/svg" viewBox="0 0 2048 2048"><path d="M1224.5 527A195.58 195.58 0 0 1 1329 631.5a179.91 179.91 0 0 1 15 72.5v1095q0 118-126 180-98 48-269 62-90 7-206 7h-78q-116 0-205-7-172-14-269-62-127-62-127-180V704a179.91 179.91 0 0 1 15-72.5 201.68 201.68 0 0 1 43-62.5 197.89 197.89 0 0 1 61.5-42 179.91 179.91 0 0 1 72.5-15h896a179.91 179.91 0 0 1 72.5 15zM576 1664H448V896h128zM256 640q-26 0-45 19t-19 45v1095q0 30 29.5 51t83.5 36q87 24 226 31 57 3 104 3h138q105 0 221-13 131-15 191-56 31-21 31-52V704q0-26-19-45t-45-19zm704 1024H832V896h128zM788.5 9Q833 18 870 36q41 21 65.5 54t24.5 76v90h384q26 0 45 19t19 45q0 26-19 45t-45 19H64q-26 0-45-19T0 320q0-26 19-45t45-19h384v-90q0-44 24.5-76.5T539 36q36-18 79.5-27A421.28 421.28 0 0 1 704 0q40 0 84.5 9zM634 136q-46 11-58 33v87h256v-90q-15-20-59-31-29-7-69-7a296.3 296.3 0 0 0-70 8z"/></svg>