<svg id="Layer_1" data-name="Layer 1" xmlns="http://www.w3.org/2000/svg" viewBox="0 0 2048 2048"><title>idt-patients-info</title><path d="M1567.5,257.5q220.5,129.5,350,350T2047,1088q0,260-129.5,480.5t-350,350Q1347,2048,1087,2048T606.5,1918.5q-220.5-129.5-350-350T127,1088q0-260,129.5-480.5t350-350Q827,128,1087,128T1567.5,257.5ZM1151,1536H1023V1024h128ZM670,368Q479,480,367,671T255,1088q0,226,112,417t303,303q191,112,417,112t417-112q191-112,303-303t112-417q0-226-112-417T1504,368q-191-112-417-112T670,368Zm496.5,256.5Q1199,657,1199,704q0,46-32.5,79T1087,816q-46,0-79-33t-33-79q0-47,33-79.5t79-32.5Q1134,592,1166.5,624.5Z"/></svg>