<svg data-name="Layer 1" xmlns="http://www.w3.org/2000/svg" viewBox="0 0 21 21" width="21" height="21"><g data-name="1.-Priority-messaging"><path d="M13.55.2a.66.66 0 0 1 .2.48v1.38h3.44a2 2 0 0 1 .79.16 2.06 2.06 0 0 1 1.12 1.09 2.06 2.06 0 0 1 .16.79v7.56h-1.38V4.12a.7.7 0 0 0-.69-.69h-3.44v1.38a.69.69 0 0 1-1.37 0V3.44h-5.5v1.37a.69.69 0 0 1-1.37 0V3.44H2.07a.7.7 0 0 0-.69.69v12.85a.7.7 0 0 0 .13.43.61.61 0 0 0 .36.24 31.79 31.79 0 0 0 7.67.9q1.35 0 2.84-.12v1.39q-1.42.12-2.75.12a33.35 33.35 0 0 1-8.08-1 2 2 0 0 1-1.12-.73 2 2 0 0 1-.32-.58 2.09 2.09 0 0 1-.11-.68V4.12a2.05 2.05 0 0 1 .16-.81 2.05 2.05 0 0 1 1.91-1.25H5.5V.69a.66.66 0 0 1 .2-.48.67.67 0 0 1 1 0 .66.66 0 0 1 .2.48v1.37h5.5V.69a.66.66 0 0 1 .2-.48.67.67 0 0 1 1 0zM6.88 10.31H4.13V7.56h2.75zm0 4.13H4.13v-2.75h2.75zM11 10.31H8.25V7.56H11zm0 4.13H8.25v-2.75H11zm4.13-4.13h-2.75V7.56h2.75zm2.75 5.5h2.76v1.38h-2.76v2.75H16.5v-2.75h-2.75v-1.38h2.75v-2.75h1.38z" fill="#6264a7" data-name="Icon/Brand-Line"/></g></svg>