<svg data-name="Layer 1" xmlns="http://www.w3.org/2000/svg" viewBox="0 0 20 16" width="20" height="16"><path d="M19.02.19a.65.65 0 0 1 .2.48.65.65 0 0 1-.2.48.65.65 0 0 1-.48.2H.67a.65.65 0 0 1-.48-.2A.65.65 0 0 1 0 .67.65.65 0 0 1 .19.19a.65.65 0 0 1 .48-.2h17.88a.65.65 0 0 1 .47.2zm0 6.88a.68.68 0 0 1-.48 1.16H.67a.65.65 0 0 1-.48-.2.68.68 0 0 1 0-1 .65.65 0 0 1 .48-.17h17.88a.65.65 0 0 1 .47.21zm0 6.88a.68.68 0 0 1-.48 1.16H.67a.65.65 0 0 1-.48-.25.68.68 0 0 1 0-1 .65.65 0 0 1 .48-.2h17.88a.65.65 0 0 1 .47.28z" fill="#6264a7"/></svg>