<svg xmlns="http://www.w3.org/2000/svg" viewBox="0 0 2048 2048"><path d="M1900 275q19 19 19 45t-19 45-45 19H703q-26 0-45-19t-19-45 19-45 45-19h1152q26 0 45 19zM858 1509q37 39 37 91 0 53-37 90-38 38-91 38-54 0-90-38-38-36-38-90 0-53 38-91 37-37 90-37 52 0 91 37zm0-640q37 39 37 91 0 53-37 90-38 38-91 38-54 0-90-38-38-36-38-90 0-53 38-91 37-37 90-37 52 0 91 37zm1042 686q19 19 19 45t-19 45-45 19h-704q-26 0-45-19t-19-45 19-45 45-19h704q26 0 45 19zM410 229q37 39 37 91 0 53-37 90-38 38-91 38-54 0-90-38-38-36-38-90 0-53 38-91 37-37 90-37 52 0 91 37zm1490 686q19 19 19 45t-19 45-45 19h-704q-26 0-45-19t-19-45 19-45 45-19h704q26 0 45 19z"/></svg>