<svg data-name="Layer 1" xmlns="http://www.w3.org/2000/svg" viewBox="0 0 16 20" width="16" height="20"><path d="M5.07.66a3.43 3.43 0 0 1 .52.67 9.26 9.26 0 0 1 .46.89 8.62 8.62 0 0 1 .48 1.3 4.72 4.72 0 0 1 .17 1.26 3.16 3.16 0 0 1-.46 1.64 4.35 4.35 0 0 1-.51.66l-.35.38a3.59 3.59 0 0 0-.35.42.6.6 0 0 0-.14.36 1.35 1.35 0 0 0 .21.42q.38.69 1.05 1.68t1.19 1.69q.24.3.35.41a1.61 1.61 0 0 0 .26.21.58.58 0 0 0 .32.1 1.27 1.27 0 0 0 .45-.09c.15-.06.38-.16.67-.3a7 7 0 0 1 .7-.28 1.88 1.88 0 0 1 .61-.1 3.1 3.1 0 0 1 1 .17 6.08 6.08 0 0 1 1.06.47 7.52 7.52 0 0 1 1 .71 6.11 6.11 0 0 1 .86.86 3.11 3.11 0 0 1 .82 1.91 2.11 2.11 0 0 1-.13.69 3.42 3.42 0 0 1-.37.74 4.51 4.51 0 0 1-1.16 1.26 2.39 2.39 0 0 1-1.41.54 1.81 1.81 0 0 1-.61-.09 17 17 0 0 1-6.13-3.39 16.35 16.35 0 0 1-2.35-2.5 15.57 15.57 0 0 1-1.75-2.91 15.87 15.87 0 0 1-1.14-3.3A16.32 16.32 0 0 1 0 3.6v-1a2.19 2.19 0 0 1 .13-.63 2 2 0 0 1 .39-.63 3.32 3.32 0 0 1 .72-.58 5.61 5.61 0 0 1 1-.5A3.52 3.52 0 0 1 3.41 0a2.27 2.27 0 0 1 1.66.66zm-2.48.9a3.29 3.29 0 0 0-.76.4 1.08 1.08 0 0 0-.38.47 2.15 2.15 0 0 0-.08.67 14.89 14.89 0 0 0 2.84 9.22 16.78 16.78 0 0 0 7.92 5.56.6.6 0 0 0 .23 0 .92.92 0 0 0 .5-.2 3.35 3.35 0 0 0 .56-.51 3.52 3.52 0 0 0 .47-.51 1.15 1.15 0 0 0 .18-.52 1.2 1.2 0 0 0-.17-.57 3.16 3.16 0 0 0-.46-.62 6.33 6.33 0 0 0-1.39-1.07 4.57 4.57 0 0 0-.72-.34 1.8 1.8 0 0 0-.6-.12 1.64 1.64 0 0 0-.55.09q-.26.09-.67.29t-.67.29a1.61 1.61 0 0 1-.54.09 2 2 0 0 1-1-.24 2.12 2.12 0 0 1-.75-.65L3.89 9.43a2 2 0 0 1-.38-1.19 1.73 1.73 0 0 1 .12-.67 2.53 2.53 0 0 1 .35-.59 4.56 4.56 0 0 1 .43-.49 3.67 3.67 0 0 0 .76-1 1.65 1.65 0 0 0 .13-.68 4.41 4.41 0 0 0-.21-1.32 5.43 5.43 0 0 0-.67-1.44 1.92 1.92 0 0 0-.48-.49.92.92 0 0 0-.53-.18 2.52 2.52 0 0 0-.82.21z" fill="#6264a7"/></svg>