<svg id="Layer_1" data-name="Layer 1" xmlns="http://www.w3.org/2000/svg" viewBox="0 0 6 21" width="6" height="21"><defs><style>.cls-1{isolation:isolate;}.cls-2{fill:#6f6d6d;}</style></defs><title>phone-important</title><g class="cls-1"><path class="cls-2" d="M4,.33a2.75,2.75,0,0,1,.78.89,4.35,4.35,0,0,1,.43,1.1A4.76,4.76,0,0,1,5.4,3.46a4.87,4.87,0,0,1,0,.56L4.26,13.57a2.18,2.18,0,0,1-.38,1,1.07,1.07,0,0,1-.9.54,1.07,1.07,0,0,1-.9-.54,2.18,2.18,0,0,1-.38-1L.62,4.24a6.05,6.05,0,0,1,0-.62A5.5,5.5,0,0,1,.72,2.44a4.35,4.35,0,0,1,.42-1.15A2.67,2.67,0,0,1,1.9.35,1.73,1.73,0,0,1,3,0,1.77,1.77,0,0,1,4,.33ZM4,18.27a1.38,1.38,0,0,1,.4,1,1.36,1.36,0,0,1-.1.53A1.38,1.38,0,0,1,3,20.63a1.35,1.35,0,0,1-.53-.11,1.27,1.27,0,0,1-.44-.3,1.28,1.28,0,0,1-.3-.44A1.38,1.38,0,0,1,2.46,18a1.41,1.41,0,0,1,1.5.3Z"/></g></svg>