<svg data-name="Layer 1" xmlns="http://www.w3.org/2000/svg" viewBox="0 0 20.63 20.63"><path d="M13.02.36a10.41 10.41 0 0 1 7.24 7.24 10.05 10.05 0 0 1 .36 2.71 10.78 10.78 0 0 1-.3 2.75 6.28 6.28 0 0 1-1.24 2.58 3.05 3.05 0 0 1-2.41 1.14 4 4 0 0 1-1.39-.24 3.53 3.53 0 0 1-1.18-.69 3 3 0 0 1-.75-1 2.77 2.77 0 0 1-.27-1.21 2.48 2.48 0 0 1 0-.27 3.91 3.91 0 0 1-1.27.78 4.13 4.13 0 0 1-1.47.27 3.93 3.93 0 0 1-1.57-.32 4.29 4.29 0 0 1-2.25-2.22 4 4 0 0 1 0-3.15 4.22 4.22 0 0 1 .9-1.33 4.17 4.17 0 0 1 1.33-.9 4 4 0 0 1 1.57-.31 4.13 4.13 0 0 1 1.47.27 3.91 3.91 0 0 1 1.27.78v-.45a1.63 1.63 0 0 1 .11-.69.59.59 0 0 1 .58-.32.7.7 0 0 1 .69.69v7.06a1.71 1.71 0 0 0 .18.79 1.77 1.77 0 0 0 .5.6 2.16 2.16 0 0 0 .7.36 2.74 2.74 0 0 0 .82.12 1.88 1.88 0 0 0 1.59-1 6.15 6.15 0 0 0 .8-2.09 9.46 9.46 0 0 0 .21-2 8.71 8.71 0 0 0-.32-2.34 8.78 8.78 0 0 0-2.31-4 9.31 9.31 0 0 0-1.8-1.41 9.29 9.29 0 0 0-2.16-.91 8.82 8.82 0 0 0-4.68 0 8.95 8.95 0 0 0-4 2.32 9.05 9.05 0 0 0-2.31 4 8.77 8.77 0 0 0 .92 6.83 9.09 9.09 0 0 0 5.36 4.13 8.7 8.7 0 0 0 2.34.32 6.91 6.91 0 0 0 1.61-.18q.77-.18 2-.56a.83.83 0 0 1 .27-.06.7.7 0 0 1 .69.69q0 .52-1 .89a8.8 8.8 0 0 1-2 .46 11.48 11.48 0 0 1-1.56.14 10 10 0 0 1-2.71-.37 10.41 10.41 0 0 1-7.26-7.24 10.21 10.21 0 0 1 0-5.42A10.41 10.41 0 0 1 7.6.36a10.21 10.21 0 0 1 5.41 0zm-3.7 7.41a2.85 2.85 0 0 0-1.54 1.54 2.66 2.66 0 0 0 0 2.09 2.85 2.85 0 0 0 1.54 1.45 2.62 2.62 0 0 0 1 .21 2.56 2.56 0 0 0 1-.21 3 3 0 0 0 .89-.6 2.72 2.72 0 0 0 .6-.87 2.58 2.58 0 0 0 .21-1 2.73 2.73 0 0 0-.17-1.07 2.79 2.79 0 0 0-.58-.89 2.71 2.71 0 0 0-1.95-.86 2.62 2.62 0 0 0-1 .21z" fill="#6f6d6d"/></svg>