<svg data-name="Layer 1" xmlns="http://www.w3.org/2000/svg" viewBox="0 0 18 22" width="18" height="22"><path d="M12.52 1a7.43 7.43 0 0 1 2.93 3 8.62 8.62 0 0 1 1 4.28 8.47 8.47 0 0 1-.47 2.88 10.54 10.54 0 0 1-1.19 2.37q-.72 1.06-2 2.64l-.62.78Q10.55 19 9.7 20.35l-.87 1.33a.71.71 0 0 1-.25.24.69.69 0 0 1-.67 0 .71.71 0 0 1-.25-.24l-.87-1.33Q5.95 19 4.26 16.93l-.62-.77q-1.28-1.59-2-2.65a10.63 10.63 0 0 1-1.19-2.37A8.47 8.47 0 0 1 0 8.25 8.63 8.63 0 0 1 1.05 4a7.43 7.43 0 0 1 2.92-3 8.64 8.64 0 0 1 4.29-1 8.64 8.64 0 0 1 4.26 1zM4.44 2.35a6.08 6.08 0 0 0-2.3 2.54 7.63 7.63 0 0 0-.76 3.36 7.2 7.2 0 0 0 .41 2.48 9.23 9.23 0 0 0 1.05 2.07q.65 1 1.89 2.49l.62.78q1.45 1.81 2.9 4 1.45-2.17 2.9-4l.62-.78q1.23-1.54 1.89-2.49a9.29 9.29 0 0 0 1.06-2.07 7.2 7.2 0 0 0 .41-2.48 7.64 7.64 0 0 0-.76-3.36 6.09 6.09 0 0 0-2.3-2.54 7 7 0 0 0-3.81-.97 7 7 0 0 0-3.82.97zm5.54 2.24a3.44 3.44 0 0 1 1.28 1.25 3.45 3.45 0 0 1 0 3.45 3.44 3.44 0 0 1-1.25 1.25 3.45 3.45 0 0 1-3.45 0 3.44 3.44 0 0 1-1.3-1.25 3.45 3.45 0 0 1 0-3.45 3.44 3.44 0 0 1 1.27-1.25 3.45 3.45 0 0 1 3.45 0zM7.26 5.78a2.1 2.1 0 0 0-.75.75 2 2 0 0 0 0 2.06 2.1 2.1 0 0 0 .75.76 2 2 0 0 0 2.06 0 2.1 2.1 0 0 0 .75-.75 2 2 0 0 0 0-2.06 2.1 2.1 0 0 0-.81-.76 2 2 0 0 0-2 0z" fill="#6f6d6d"/></svg>