<svg xmlns="http://www.w3.org/2000/svg" viewBox="0 0 2048 2048"><path d="M1269.5 177.5Q1386 227 1475 316t138.5 205.5T1663 768q0 151-68 285-68 136-188 226v658q0 43-28 74-29 32-72 32-21 0-40.5-9t-33.5-26l-210-252-210 252q-14 17-33.5 26.5T739 2044q-41 0-71-33-14-14-21.5-33.5T639 1937v-658q-120-90-188-226-68-134-68-285 0-130 49.5-246.5T571 316t205.5-138.5T1023 128t246.5 49.5zM1023 1408q-131 0-256-54v509l182-218q28-34 74-34t74 34l182 218v-509q-125 54-256 54zM826 295.5Q733 335 662 406T551 570.5 511 768t40 197.5T662 1129q70 71 163.5 111t197.5 40 197.5-40 164.5-111 110.5-164 39.5-197-39.5-197.5T1385 406t-164.5-110.5T1023 256t-197 39.5z"/></svg>