<svg data-name="Layer 1" xmlns="http://www.w3.org/2000/svg" viewBox="0 0 2048 1280"><path d="M1288.5 15A195.58 195.58 0 0 1 1393 119.5a179.91 179.91 0 0 1 15 72.5v896a179.91 179.91 0 0 1-15 72.5 197.89 197.89 0 0 1-42 61.5 201.68 201.68 0 0 1-62.5 43 179.91 179.91 0 0 1-72.5 15H233q-104 0-163-109-44-81-61-233-9-82-9-215V557q0-134 9-216 17-150 61-233Q129 0 233 0h983a179.91 179.91 0 0 1 72.5 15zM233 128q-50 0-77 114-19 82-25 229-3 57-3 102v133q0 110 11 220 11 131 48 194 18 32 46 32h983q26 0 45-19t19-45V192q0-26-19-45t-45-19zm1796 19q19 19 19 45v896q0 26-19 45t-45 19q-26 0-44-18l-324-309a254.39 254.39 0 0 1-59-84.5 251 251 0 0 1 0-201 254.39 254.39 0 0 1 59-84.5l324-309q18-18 44-18t45 19zm-325 401a116.38 116.38 0 0 0-29.5 41.5 126.69 126.69 0 0 0 0 101A116.38 116.38 0 0 0 1704 732l216 206V342z"/></svg>