<svg xmlns="http://www.w3.org/2000/svg" viewBox="0 0 2048 2048"><path d="M1928.5 271q34.5 15 62.5 42 27 28 42 62.5t15 72.5v1152q0 38-15 72.5t-42 61.5q-28 28-62.5 43t-72.5 15H192q-38 0-72.5-15T58 1734q-28-27-43-61.5T0 1600V448q0-38 15-72.5T58 313q27-27 61.5-42t72.5-15h1664q38 0 72.5 15zm-1344 320q34.5 15 62.5 42 27 28 42 62.5t15 72.5-15 72.5-42 61.5q-28 28-62.5 43T512 960t-72.5-15-61.5-43q-28-27-43-61.5T320 768t15-72.5 43-62.5q27-27 61.5-42t72.5-15 72.5 15zM192 384q-26 0-45 19t-19 45v1152q0 26 19 45t45 19h1664q26 0 45-19t19-45V448q0-26-19-45t-45-19H192zm1324 227q82 35 144 97t97 144 35 172q0 91-34.5 171.5T1660 1339t-145 98-171 35q-90 0-171-35t-144-98-98-144-35-171q0-89 35-171t98-145 143.5-97.5T1344 576q90 0 172 35zm-295 118q-58 25-102 69-45 45-70 103t-25 123q0 64 25 122t70 103 103 70 122 25q65 0 123-25t103-70q44-44 69-102t25-123-25-123.5-69-102.5-102.5-69-123.5-25-123 25z"/></svg>