<svg id="Layer_1" data-name="Layer 1" xmlns="http://www.w3.org/2000/svg" viewBox="0 0 32 33" width="32" height="33"><defs><style>.cls-2{isolation:isolate}.cls-3{fill:#6f6d6d}</style></defs><g id="Priority-Msg-_-Img-Annotation" data-name="Priority-Msg-/-Img-Annotation"><g id="_1-0-Chat" data-name="1-0-Chat"><g id="Navigation_Tab-Grey" data-name="Navigation/Tab-Grey"><path id="Container" d="M-21-9h75v50h-75z" fill="none"/><g class="cls-2"><path class="cls-3" d="M3.59 32v-6.31H1.23v-.84h5.68v.84H4.54V32zM10.21 30.33l.91.11a2.22 2.22 0 0 1-.8 1.24 2.39 2.39 0 0 1-1.48.44 2.37 2.37 0 0 1-1.8-.7 2.74 2.74 0 0 1-.67-2 2.87 2.87 0 0 1 .67-2 2.28 2.28 0 0 1 1.75-.72 2.22 2.22 0 0 1 1.7.71 2.81 2.81 0 0 1 .66 2v.23H7.27a2 2 0 0 0 .48 1.31 1.44 1.44 0 0 0 1.08.45 1.35 1.35 0 0 0 .83-.25 1.68 1.68 0 0 0 .55-.82zm-2.89-1.42h2.9a1.76 1.76 0 0 0-.33-1 1.35 1.35 0 0 0-1.09-.51 1.39 1.39 0 0 0-1 .41 1.61 1.61 0 0 0-.48 1.1zM15.6 31.36a3.29 3.29 0 0 1-.94.59 2.71 2.71 0 0 1-1 .17 1.88 1.88 0 0 1-1.31-.42 1.38 1.38 0 0 1-.46-1.07 1.41 1.41 0 0 1 .17-.7 1.43 1.43 0 0 1 .45-.51 2.14 2.14 0 0 1 .63-.29A6.16 6.16 0 0 1 14 29a8.06 8.06 0 0 0 1.57-.3v-.23a1 1 0 0 0-.25-.76 1.47 1.47 0 0 0-1-.3 1.55 1.55 0 0 0-.92.22 1.32 1.32 0 0 0-.44.77l-.86-.12a2.13 2.13 0 0 1 .39-.89 1.69 1.69 0 0 1 .78-.52 3.44 3.44 0 0 1 1.18-.18 3.11 3.11 0 0 1 1.08.16 1.43 1.43 0 0 1 .61.39 1.38 1.38 0 0 1 .27.6 5 5 0 0 1 0 .81v1.17a12.38 12.38 0 0 0 .06 1.55 2 2 0 0 0 .22.62h-.92a1.86 1.86 0 0 1-.17-.63zm-.07-2a6.44 6.44 0 0 1-1.44.33 3.29 3.29 0 0 0-.77.18.76.76 0 0 0-.35.29.78.78 0 0 0 .14 1 1.14 1.14 0 0 0 .78.23 1.82 1.82 0 0 0 .9-.22 1.37 1.37 0 0 0 .58-.61 2.12 2.12 0 0 0 .14-.88zM17.78 32v-5.19h.79v.73a1.84 1.84 0 0 1 .65-.61 1.82 1.82 0 0 1 .92-.23 1.71 1.71 0 0 1 .95.24 1.29 1.29 0 0 1 .52.67 1.86 1.86 0 0 1 1.6-.91 1.58 1.58 0 0 1 1.19.43 1.82 1.82 0 0 1 .42 1.32V32h-.87v-3.27a2.41 2.41 0 0 0-.08-.76.74.74 0 0 0-.31-.37 1 1 0 0 0-.53-.14 1.23 1.23 0 0 0-.91.36 1.61 1.61 0 0 0-.38 1.18v3h-.88v-3.37a1.49 1.49 0 0 0-.21-.88.81.81 0 0 0-.7-.29 1.27 1.27 0 0 0-.69.2 1.1 1.1 0 0 0-.46.57 3.24 3.24 0 0 0-.14 1.08V32zM25.76 30.45l.87-.14a1.22 1.22 0 0 0 .41.8 1.42 1.42 0 0 0 .94.28 1.37 1.37 0 0 0 .9-.25.74.74 0 0 0 .29-.58.53.53 0 0 0-.26-.47 3.79 3.79 0 0 0-.9-.3 8.35 8.35 0 0 1-1.34-.42 1.28 1.28 0 0 1-.76-1.19 1.33 1.33 0 0 1 .16-.64 1.43 1.43 0 0 1 .43-.49 1.81 1.81 0 0 1 .56-.26 2.66 2.66 0 0 1 .76-.11 3 3 0 0 1 1.07.18 1.45 1.45 0 0 1 .68.48 1.86 1.86 0 0 1 .3.8l-.86.12a.94.94 0 0 0-.34-.62 1.25 1.25 0 0 0-.79-.22 1.43 1.43 0 0 0-.86.2.59.59 0 0 0-.26.47.49.49 0 0 0 .11.31.77.77 0 0 0 .34.23l.78.22a10.68 10.68 0 0 1 1.3.41 1.32 1.32 0 0 1 .58.46 1.28 1.28 0 0 1 .21.75 1.47 1.47 0 0 1-.26.83 1.65 1.65 0 0 1-.74.6 2.68 2.68 0 0 1-1.09.21 2.43 2.43 0 0 1-1.54-.42 2 2 0 0 1-.69-1.24z"/></g><g class="cls-2"><path class="cls-3" d="M9.3 2a2.85 2.85 0 0 1 1.49 1.49 2.66 2.66 0 0 1 0 2.09A2.85 2.85 0 0 1 9.3 7a2.66 2.66 0 0 1-2.1 0 2.85 2.85 0 0 1-1.49-1.45 2.66 2.66 0 0 1 0-2.09A2.85 2.85 0 0 1 7.2 2a2.66 2.66 0 0 1 2.1 0zM11 17H9.63a7 7 0 0 1-1.44-.15 4.65 4.65 0 0 1-1.28-.46 2.8 2.8 0 0 1-1-.91 2.35 2.35 0 0 1-.41-1.38V8.63H11zm9.63-.18a2.35 2.35 0 0 1-.37 1.33 2.73 2.73 0 0 1-1 .9 4.82 4.82 0 0 1-1.29.46 7 7 0 0 1-1.45.15 6.62 6.62 0 0 1-1.42-.16 4.92 4.92 0 0 1-1.32-.5 2.76 2.76 0 0 1-1-.9 2.31 2.31 0 0 1-.38-1.32V7.25h8.25zM17.55.59A2.85 2.85 0 0 1 19 2.08a2.66 2.66 0 0 1 0 2.09 2.85 2.85 0 0 1-1.49 1.49 2.66 2.66 0 0 1-2.09 0A2.85 2.85 0 0 1 14 4.17a2.66 2.66 0 0 1 0-2.09A2.85 2.85 0 0 1 15.45.59a2.66 2.66 0 0 1 2.09 0zM25.8 2a2.85 2.85 0 0 1 1.49 1.49 2.66 2.66 0 0 1 0 2.09A2.85 2.85 0 0 1 25.8 7a2.66 2.66 0 0 1-2.1 0 2.85 2.85 0 0 1-1.49-1.49 2.66 2.66 0 0 1 0-2.09A2.85 2.85 0 0 1 23.7 2a2.66 2.66 0 0 1 2.1 0zm1.7 12.1a2.35 2.35 0 0 1-.37 1.33 2.82 2.82 0 0 1-1 .91 4.82 4.82 0 0 1-1.29.46 7 7 0 0 1-1.45.15H22V8.63h5.5z"/></g></g></g></g></svg>