<svg data-name="Layer 1" xmlns="http://www.w3.org/2000/svg" viewBox="0 0 1792 1792"><path d="M493 19q19 19 19 45t-19 45L219 384h869q187 0 354 97a718.52 718.52 0 0 1 253 253q97 167 97 354a678.88 678.88 0 0 1-25 183.5 710.63 710.63 0 0 1-72 169.5 700.73 700.73 0 0 1-110.5 143.5A713.07 713.07 0 0 1 1442 1695q-167 97-354 97-26 0-45-19t-19-45q0-26 19-45t45-19q116 0 221.5-45t185.5-125q79-79 124-184.5t45-221.5q0-116-44.5-221.5a578.56 578.56 0 0 0-310-310Q1204 512 1088 512H219l274 275q19 19 19 45t-19 45q-19 19-45 19t-45-19L19 493Q0 474 0 448t19-45L403 19q19-19 45-19t45 19z"/></svg>