<svg data-name="Layer 1" xmlns="http://www.w3.org/2000/svg" viewBox="0 0 15.8 16"><path d="M5.7 14.77l2.9-.6a1.56 1.56 0 0 1-1.2 1.8 1.46 1.46 0 0 1-1.7-1.2zm-4.5-.1l11.6-2.4a.92.92 0 0 0 .6-.4 1.06 1.06 0 0 0 .1-.8 1 1 0 0 0-1.2-.8.87.87 0 0 1-1.1-.7l-.8-3.9a5.35 5.35 0 0 0-2.1-3.2 5.35 5.35 0 0 0-3.7-.8 5 5 0 0 0-3.9 5.9l.8 3.9a1 1 0 0 1-.8 1.2.92.92 0 0 0-.6.4 2.49 2.49 0 0 0-.1.8 1 1 0 0 0 1 .8zm11.9-8a8 8 0 0 0-1.4-4.5.5.5 0 0 0-.8.6 6.67 6.67 0 0 1 1.2 3.9.5.5 0 1 0 1 0zm2.7 0a10.32 10.32 0 0 0-2.3-6.5.62.62 0 0 0-.7-.1.62.62 0 0 0-.1.7 9.07 9.07 0 0 1 2.1 5.9.5.5 0 0 0 1 0z" fill="#c4314b"/></svg>