<svg data-name="Layer 1" xmlns="http://www.w3.org/2000/svg" viewBox="0 0 20 19.97"><path d="M7.3 18.44l3.7-.7a1.91 1.91 0 0 1-1.5 2.2 1.86 1.86 0 0 1-2.2-1.5zm-5.8-.1l14.7-2.9a2.18 2.18 0 0 0 .8-.5 1 1 0 0 0 .2-.9 1.27 1.27 0 0 0-1.5-1 1 1 0 0 1-.9-.2 1 1 0 0 1-.5-.8l-1-4.9a6.46 6.46 0 0 0-2.7-4 6.11 6.11 0 0 0-4.7-1A6.27 6.27 0 0 0 1 9.54l1 4.9a1.33 1.33 0 0 1-1 1.5 2.18 2.18 0 0 0-.8.5 1.34 1.34 0 0 0-.2.9 1.19 1.19 0 0 0 1.2 1zm15.2-10a9.36 9.36 0 0 0-1.8-5.6.64.64 0 0 0-1 .8 8.44 8.44 0 0 1 1.6 4.9.65.65 0 0 0 .6.6c.3 0 .6-.4.6-.7zm3.3 0a12.57 12.57 0 0 0-2.9-8.1.63.63 0 0 0-.9-.1.63.63 0 0 0-.1.9 11.44 11.44 0 0 1 2.6 7.3.65.65 0 0 0 .6.6c.3 0 .7-.3.7-.6z" fill="#fff"/></svg>