<svg data-name="Layer 1" xmlns="http://www.w3.org/2000/svg" viewBox="0 0 2048 2048"><path d="M1212 34a969.42 969.42 0 0 1 674 674q34 122 34 252 0 134-32 256-39 152-115 240-91 106-224 106a379.45 379.45 0 0 1-129.5-22.5Q1357 1517 1310 1475q-45-39-70-91t-25-113q0-17 1-25-51 47-118 72.5a382.2 382.2 0 0 1-137 25.5 365.77 365.77 0 0 1-146.5-30A399.35 399.35 0 0 1 607 1106.5a373.93 373.93 0 0 1 0-293.5 392.46 392.46 0 0 1 84-124 387.09 387.09 0 0 1 123.5-83.5A371.1 371.1 0 0 1 961 576a382.2 382.2 0 0 1 137 25.5q67 25.5 118 72.5v-42q0-44 10-64 15-30 54-30 26 0 45 19t19 45v657q0 41 17 74a165.14 165.14 0 0 0 47 56q28 22 65 33.5a254.6 254.6 0 0 0 76 11.5q88 0 148-91 49-74 75-197a882.4 882.4 0 0 0 20-186 809.29 809.29 0 0 0-29.5-218 859.45 859.45 0 0 0-84.5-201 867.35 867.35 0 0 0-299-299 859.45 859.45 0 0 0-201-84.5 820.24 820.24 0 0 0-436 0A840.53 840.53 0 0 0 542 242a849.69 849.69 0 0 0-169 131 842.57 842.57 0 0 0-215.5 369 816.26 816.26 0 0 0 85.5 636 846.19 846.19 0 0 0 499 384.5 809.29 809.29 0 0 0 218 29.5q78 0 149.5-17t183.5-52q16-6 25-6 26 0 45 19t19 45q0 48-92 83-72 28-185 43-90 13-145 13-130 0-252-34a969.42 969.42 0 0 1-674-674Q0 1090 0 960t34-252A969.42 969.42 0 0 1 708 34Q830 0 960 0t252 34zM863.5 724A265.29 265.29 0 0 0 725 862.5a247.66 247.66 0 0 0 0 195A265.29 265.29 0 0 0 863.5 1196a244.22 244.22 0 0 0 97.5 20 238.29 238.29 0 0 0 96-20 276.22 276.22 0 0 0 83-56 252.14 252.14 0 0 0 56-81 240.68 240.68 0 0 0 20-97 255.79 255.79 0 0 0-19.5-99 261.9 261.9 0 0 0-54.5-83 252.15 252.15 0 0 0-181-76 244.22 244.22 0 0 0-97.5 20z"/></svg>