<svg id="Layer_1" data-name="Layer 1" xmlns="http://www.w3.org/2000/svg" viewBox="0 0 24 33" width="24" height="33"><defs><style>.cls-2{isolation:isolate}.cls-3{fill:#6f6d6d}</style></defs><path id="Container" d="M-25-9h75v50h-75z" fill="none"/><g class="cls-2"><path class="cls-3" d="M6.31 29.49l.95.24a3.19 3.19 0 0 1-1.07 1.78 3 3 0 0 1-1.89.61 3.4 3.4 0 0 1-1.88-.47 2.94 2.94 0 0 1-1.1-1.36 4.87 4.87 0 0 1-.38-1.92 4.22 4.22 0 0 1 .43-2 2.92 2.92 0 0 1 1.22-1.26 3.54 3.54 0 0 1 1.74-.43 2.94 2.94 0 0 1 1.81.55 2.84 2.84 0 0 1 1 1.54L6.2 27a2.21 2.21 0 0 0-.72-1.14 1.93 1.93 0 0 0-1.19-.36 2.31 2.31 0 0 0-1.38.4 2.09 2.09 0 0 0-.78 1.1 4.27 4.27 0 0 0-.22 1.37A4.38 4.38 0 0 0 2.17 30 2 2 0 0 0 3 31a2.32 2.32 0 0 0 1.22.34 2 2 0 0 0 1.35-.46 2.35 2.35 0 0 0 .74-1.39zM11.7 31.36a3.29 3.29 0 0 1-.94.59 2.71 2.71 0 0 1-1 .17 1.88 1.88 0 0 1-1.31-.42A1.38 1.38 0 0 1 8 30.63a1.41 1.41 0 0 1 .17-.7 1.43 1.43 0 0 1 .45-.51 2.14 2.14 0 0 1 .63-.29 6.16 6.16 0 0 1 .78-.13 8.06 8.06 0 0 0 1.57-.3v-.23a1 1 0 0 0-.25-.76 1.47 1.47 0 0 0-1-.3 1.55 1.55 0 0 0-.92.22 1.32 1.32 0 0 0-.44.77l-.86-.12a2.13 2.13 0 0 1 .39-.89 1.69 1.69 0 0 1 .78-.52 3.44 3.44 0 0 1 1.18-.18 3.11 3.11 0 0 1 1.08.16 1.43 1.43 0 0 1 .61.39 1.38 1.38 0 0 1 .27.6 5 5 0 0 1 0 .81v1.17a12.38 12.38 0 0 0 .06 1.55 2 2 0 0 0 .22.62h-.92a1.86 1.86 0 0 1-.1-.63zm-.07-2a6.44 6.44 0 0 1-1.44.33 3.29 3.29 0 0 0-.77.18.76.76 0 0 0-.35.29.78.78 0 0 0 .14 1 1.14 1.14 0 0 0 .78.23 1.82 1.82 0 0 0 .9-.22 1.37 1.37 0 0 0 .58-.61 2.12 2.12 0 0 0 .14-.88zM13.85 32v-7.16h.88V32zM16.08 32v-7.16H17V32zM18 30.45l.87-.14a1.21 1.21 0 0 0 .41.8 1.42 1.42 0 0 0 .93.28 1.37 1.37 0 0 0 .9-.25.74.74 0 0 0 .29-.58.53.53 0 0 0-.26-.47 3.79 3.79 0 0 0-.9-.3 8.3 8.3 0 0 1-1.34-.42 1.28 1.28 0 0 1-.76-1.19 1.33 1.33 0 0 1 .16-.64 1.43 1.43 0 0 1 .43-.49 1.8 1.8 0 0 1 .56-.26 2.64 2.64 0 0 1 .71-.09 3 3 0 0 1 1.07.18 1.45 1.45 0 0 1 .68.48 1.85 1.85 0 0 1 .3.8l-.86.12a.94.94 0 0 0-.34-.62 1.25 1.25 0 0 0-.79-.22 1.44 1.44 0 0 0-.86.2.59.59 0 0 0-.26.47.49.49 0 0 0 .11.31.78.78 0 0 0 .34.23l.78.22a10.68 10.68 0 0 1 1.3.41 1.32 1.32 0 0 1 .58.46 1.28 1.28 0 0 1 .21.75 1.48 1.48 0 0 1-.26.83 1.66 1.66 0 0 1-.74.6 2.68 2.68 0 0 1-1.09.21 2.43 2.43 0 0 1-1.54-.42 2 2 0 0 1-.63-1.26z"/></g><g class="cls-2"><path class="cls-3" d="M9.29.68a2.47 2.47 0 0 1 .62.14 1.84 1.84 0 0 1 .57.37 3.85 3.85 0 0 1 .55.66 7.75 7.75 0 0 1 .79 1.65 5.7 5.7 0 0 1 .32 1.79 3.15 3.15 0 0 1-.15 1 3.38 3.38 0 0 1-.41.84 4.54 4.54 0 0 1-.47.6l-.51.53-.32.32 3.32 4.77.6-.29a6.72 6.72 0 0 1 1.26-.47 2.76 2.76 0 0 1 .67-.08A3.75 3.75 0 0 1 18 13a8 8 0 0 1 1.53 1.18l.15.15a5.28 5.28 0 0 1 .69.76 2 2 0 0 1 .41 1.15 4.14 4.14 0 0 1-.29 1.39 6 6 0 0 1-.31.72 2.25 2.25 0 0 1-.36.52 1.48 1.48 0 0 1-.54.35 2.14 2.14 0 0 1-.75.11 1.81 1.81 0 0 1-.61-.09 17 17 0 0 1-6.13-3.39 16.27 16.27 0 0 1-2.35-2.5 15.5 15.5 0 0 1-1.75-2.91 16.13 16.13 0 0 1-1.54-6.82 8.77 8.77 0 0 1 .08-1.25 2.39 2.39 0 0 1 .29-.87 1.58 1.58 0 0 1 .7-.63A2.79 2.79 0 0 1 8.41.64a8.25 8.25 0 0 1 .88.04z"/></g></svg>