<svg xmlns="http://www.w3.org/2000/svg" viewBox="0 0 2048 2048"><path d="M512 512h1024V384H512v128zm0 256h768V640H512v128zm1517 915q19 19 19 45t-19 45-45 19h-486l147 147q19 18 19 45 0 26-19 45-18 19-45 19t-45-19l-256-256q-19-19-19-45t19-45l256-256q19-19 45-19 27 0 45 19 19 18 19 45 0 26-19 45l-147 147h486q26 0 45 19zM512 1536h640v-128H512v128zm512 256l128 128H320q-52 0-96-26t-70-70-26-96V768h128v256h1536V192q0-26-19-45t-45-19H140q20-56 69.5-92T320 0h1408q52 0 96 26t70 70 26 96v1216h-128v-256H256v576q0 26 19 45t45 19h704zM80 309.5Q43 331 21.5 368T0 448t21.5 80T80 586.5t80 21.5 80-21.5 58.5-58.5 21.5-80-21.5-80-58.5-58.5-80-21.5-80 21.5z"/></svg>