<svg data-name="Layer 1" xmlns="http://www.w3.org/2000/svg" viewBox="0 0 2048 2048"><path d="M512 512h1024V384H512zm0 256h768V640H512zm1517 915q19 19 19 45t-19 45q-19 19-45 19h-486l147 147q19 18 19 45 0 26-19 45-18 19-45 19t-45-19l-256-256q-19-19-19-45t19-45l256-256q19-19 45-19 27 0 45 19 19 18 19 45 0 26-19 45l-147 147h486q26 0 45 19zM512 1536h640v-128H512zm512 256l128 128H320q-52 0-96-26a195.67 195.67 0 0 1-70-70q-26-44-26-96V768h128v256h1536V192q0-26-19-45t-45-19H140q20-56 69.5-92T320 0h1408q52 0 96 26a195.67 195.67 0 0 1 70 70q26 44 26 96v1216h-128v-256H256v576q0 26 19 45t45 19zM80 309.5A158.86 158.86 0 0 0 21.5 368a159.59 159.59 0 0 0 0 160A158.86 158.86 0 0 0 80 586.5a156.51 156.51 0 0 0 80 21.5 156.51 156.51 0 0 0 80-21.5 158.86 158.86 0 0 0 58.5-58.5 159.59 159.59 0 0 0 0-160 158.86 158.86 0 0 0-58.5-58.5 156.51 156.51 0 0 0-80-21.5 156.51 156.51 0 0 0-80 21.5z"/></svg>