<svg id="Layer_1" data-name="Layer 1" xmlns="http://www.w3.org/2000/svg" viewBox="0 0 23 33" width="23" height="33"><defs><style>.cls-2{isolation:isolate}.cls-3{fill:#6f6d6d}</style></defs><g id="Priority-Msg-_-Img-Annotation" data-name="Priority-Msg-/-Img-Annotation"><g id="_1-0-Chat" data-name="1-0-Chat"><g id="Navigation_Tab-Purple" data-name="Navigation/Tab-Purple"><path id="Container" d="M-26-9h75v50h-75z" fill="none"/><g class="cls-2"><path class="cls-3" d="M5.78 29.49l.95.24a3.19 3.19 0 0 1-1.07 1.78 3 3 0 0 1-1.89.61 3.4 3.4 0 0 1-1.88-.47 2.94 2.94 0 0 1-1.1-1.36 4.87 4.87 0 0 1-.39-1.92 4.22 4.22 0 0 1 .43-2A2.92 2.92 0 0 1 2 25.15a3.54 3.54 0 0 1 1.74-.43 2.94 2.94 0 0 1 1.81.55 2.84 2.84 0 0 1 1 1.54l-.88.19A2.21 2.21 0 0 0 5 25.89a1.93 1.93 0 0 0-1.19-.36 2.31 2.31 0 0 0-1.38.4A2.09 2.09 0 0 0 1.6 27a4.27 4.27 0 0 0-.22 1.37A4.38 4.38 0 0 0 1.64 30a2 2 0 0 0 .83 1 2.32 2.32 0 0 0 1.22.34A2 2 0 0 0 5 30.85a2.35 2.35 0 0 0 .78-1.36zM7.78 32v-7.16h.88v2.57a2 2 0 0 1 1.55-.71 2.1 2.1 0 0 1 1 .23 1.34 1.34 0 0 1 .61.63 2.89 2.89 0 0 1 .18 1.15V32h-.88v-3.29a1.36 1.36 0 0 0-.29-1 1.07 1.07 0 0 0-.81-.3 1.43 1.43 0 0 0-.73.2 1.15 1.15 0 0 0-.49.55 2.52 2.52 0 0 0-.15 1V32zM16.73 31.36a3.29 3.29 0 0 1-.94.59 2.71 2.71 0 0 1-1 .17 1.88 1.88 0 0 1-1.31-.42 1.37 1.37 0 0 1-.48-1.07 1.42 1.42 0 0 1 .17-.7 1.44 1.44 0 0 1 .45-.51 2.15 2.15 0 0 1 .63-.29 6.13 6.13 0 0 1 .78-.13 8.08 8.08 0 0 0 1.57-.3v-.23a1 1 0 0 0-.25-.76 1.47 1.47 0 0 0-1-.3 1.55 1.55 0 0 0-.92.22 1.32 1.32 0 0 0-.44.77l-.86-.12a2.12 2.12 0 0 1 .39-.89 1.68 1.68 0 0 1 .78-.52 3.43 3.43 0 0 1 1.18-.18 3.11 3.11 0 0 1 1.08.16 1.44 1.44 0 0 1 .61.39 1.4 1.4 0 0 1 .27.6 5 5 0 0 1 0 .81v1.17a12.53 12.53 0 0 0 .06 1.55 2 2 0 0 0 .22.62h-.92a1.84 1.84 0 0 1-.07-.63zm-.07-2a6.46 6.46 0 0 1-1.44.33 3.28 3.28 0 0 0-.77.18.76.76 0 0 0-.35.29.74.74 0 0 0-.12.42.75.75 0 0 0 .27.59 1.15 1.15 0 0 0 .78.23 1.82 1.82 0 0 0 .9-.22 1.37 1.37 0 0 0 .58-.61 2.13 2.13 0 0 0 .14-.88zM20.83 31.21L21 32a3.29 3.29 0 0 1-.66.08 1.51 1.51 0 0 1-.74-.15.84.84 0 0 1-.37-.4 3.13 3.13 0 0 1-.11-1v-3h-.64v-.68h.64v-1.32l.87-.53v1.81h.88v.68h-.88v3A1.55 1.55 0 0 0 20 31a.37.37 0 0 0 .15.17.59.59 0 0 0 .3.06z"/></g><g class="cls-2"><path class="cls-3" d="M20.34.53A2 2 0 0 1 21 1a2.07 2.07 0 0 1 .45.66 2 2 0 0 1 .16.79v17.12a1.38 1.38 0 0 1-.42 1 1.44 1.44 0 0 1-2.13-.11L15.94 17h-.09q-1.77.16-3.87.16A31.12 31.12 0 0 1 4 16.2a2.26 2.26 0 0 1-1.2-.77 2 2 0 0 1-.47-1.34V2.43A2 2 0 0 1 3 1a2 2 0 0 1 .64-.47 2 2 0 0 1 .79-.15h15.12a2.06 2.06 0 0 1 .79.15zM7.86 5.86v1.39h8.25V5.86zm0 4.1v1.41h5.5V10z"/></g></g></g></g></svg>