<svg data-name="Layer 1" xmlns="http://www.w3.org/2000/svg" viewBox="0 0 2048 2048"><path d="M1408 1527q0 72-34.5 124t-94.5 84q-54 29-121 43a653.53 653.53 0 0 1-134 14 620.39 620.39 0 0 1-132.5-14.5Q825 1763 771 1734q-61-32-96-84t-35-123V640h768zM493 787q19 19 19 45t-19 45q-19 19-45 19H128v382q0 64 62 98 48 28 132 35 47 5 126 5 26 0 45 19t19 45q0 25-19 44.5t-45 19.5h-64a653.53 653.53 0 0 1-134-14q-67-14-120-43-61-33-95.5-85T0 1278V768h448q26 0 45 19zM353.5 148A265.29 265.29 0 0 1 492 286.5a247.66 247.66 0 0 1 0 195A265.29 265.29 0 0 1 353.5 620a247.66 247.66 0 0 1-195 0A265.29 265.29 0 0 1 20 481.5a247.66 247.66 0 0 1 0-195A265.29 265.29 0 0 1 158.5 148a247.66 247.66 0 0 1 195 0zM167 294a135.72 135.72 0 0 0-28.5 42Q128 360 128 384q0 52 39 89 37 39 89 39 24 0 48-10.5a135.72 135.72 0 0 0 42-28.5q38-38 38-89a124 124 0 0 0-10-48 128.69 128.69 0 0 0-70-70 124 124 0 0 0-48-10q-51 0-89 38zm601 474v759q0 78 96 112 65 25 160 25t161-25q95-35 95-112V768zm1280 510q0 72-34.5 124t-94.5 85q-54 29-121 43a653.53 653.53 0 0 1-134 14h-64q-26 0-45-19.5t-19-44.5q0-26 19-45t45-19q79 0 127-5 83-7 132-35 61-34 61-98V896h-320q-26 0-45-19t-19-45q0-26 19-45t45-19h448zM1121.5 20A265.29 265.29 0 0 1 1260 158.5a247.66 247.66 0 0 1 0 195A265.29 265.29 0 0 1 1121.5 492a247.66 247.66 0 0 1-195 0A265.29 265.29 0 0 1 788 353.5a247.66 247.66 0 0 1 0-195A265.29 265.29 0 0 1 926.5 20a247.66 247.66 0 0 1 195 0zM935 166a135.72 135.72 0 0 0-28.5 42Q896 232 896 256q0 52 39 89 37 39 89 39 24 0 48-10.5a135.72 135.72 0 0 0 42-28.5q38-38 38-89a124 124 0 0 0-10-48 128.69 128.69 0 0 0-70-70 124 124 0 0 0-48-10q-51 0-89 38zm954.5-18A265.29 265.29 0 0 1 2028 286.5a247.66 247.66 0 0 1 0 195A265.29 265.29 0 0 1 1889.5 620a247.66 247.66 0 0 1-195 0A265.29 265.29 0 0 1 1556 481.5a247.66 247.66 0 0 1 0-195A265.29 265.29 0 0 1 1694.5 148a247.66 247.66 0 0 1 195 0zM1703 294a135.72 135.72 0 0 0-28.5 42q-10.5 24-10.5 48 0 52 39 89 37 39 89 39 24 0 48-10.5a135.72 135.72 0 0 0 42-28.5q38-38 38-89a124 124 0 0 0-10-48 128.69 128.69 0 0 0-70-70 124 124 0 0 0-48-10q-51 0-89 38z"/></svg>