<svg xmlns="http://www.w3.org/2000/svg" viewBox="0 0 2048 2048"><path d="M1288 46q58 46 88.5 132.5T1407 384q0 142-78 309 27-2 77-2 252 0 369 105 47 42 63.5 86t16.5 78q0 24-6 55t-24 106q-28 118-49.5 219t-44.5 243q-31 184-184 272-118 67-293 67-103 0-205.5-21T872 1852q-37-14-71-14-38 0-74 16-42 18-90 18-51 0-93-19-33-15-56.5-40t-33.5-56l-160-479q-10-29-10-61 0-54 28.5-100.5T390 1045l140-70q84-140 181.5-278T891 451q70-95 88-209 9-59 23.5-109t51-91.5T1151 0q79 0 137 46zm-157 107.5q-13 25.5-26 108.5-23 148-113 266-83 110-180.5 250T630 1057l-10 16-173 87q-16 8-25.5 23.5T412 1217q0 9 3 20l160 480q4 12 22 19 16 8 41 8 22 0 39-7 62-27 126-27 56 0 116 22 67 26 157.5 44t178.5 18q142 0 229-50 99-56 120-182 35-213 90-446l6-24q11-44 19-81.5t8-50.5q0-11-7.5-30t-29.5-39q-33-29-101-50.5T1404 819q-79 0-154 9-23 2-42.5-7t-31.5-28q-12-20-12-41t11-41q43-72 73.5-160.5T1279 384q0-92-26.5-174T1151 128q-7 0-20 25.5z"/></svg>