<svg data-name="Layer 1" xmlns="http://www.w3.org/2000/svg" viewBox="0 0 2048 2048"><path d="M1004 46q58 46 88.5 132.5T1123 384q0 142-78 309 27-2 77-2 252 0 369 105 47 42 63.5 86t16.5 78q0 24-6 55t-24 106q-28 118-49.5 219t-44.5 243q-31 184-184 272-118 67-293 67a1021.4 1021.4 0 0 1-205.5-21Q662 1880 588 1852q-37-14-71-14a180.43 180.43 0 0 0-74 16q-42 18-90 18-51 0-93-19a177.2 177.2 0 0 1-56.5-40 147 147 0 0 1-33.5-56L10 1278a185.8 185.8 0 0 1-10-61 188.86 188.86 0 0 1 28.5-100.5A190.87 190.87 0 0 1 106 1045l140-70q84-140 181.5-278T607 451q70-95 88-209a854.63 854.63 0 0 1 23.5-109q14.5-50 51-91.5T867 0q79 0 137 46zM847 153.5Q834 179 821 262q-23 148-113 266-83 110-180.5 250T346 1057l-10 16-173 87a61.85 61.85 0 0 0-25.5 23.5 63 63 0 0 0-9.5 33.5 76.65 76.65 0 0 0 3 20l160 480q4 12 22 19 16 8 41 8 22 0 39-7 62-27 126-27 56 0 116 22 67 26 157.5 44a913.44 913.44 0 0 0 178.5 18q142 0 229-50 99-56 120-182 35-213 90-446l6-24q11-44 19-81.5t8-50.5q0-11-7.5-30t-29.5-39q-33-29-101-50.5T1120 819a1291.77 1291.77 0 0 0-154 9q-23 2-42.5-7a72.84 72.84 0 0 1-31.5-28q-12-20-12-41t11-41q43-72 73.5-160.5T995 384q0-92-26.5-174T867 128q-7 0-20 25.5z"/></svg>