<svg id="Layer_1" data-name="Layer 1" xmlns="http://www.w3.org/2000/svg" viewBox="0 0 45 35" width="45" height="35"><defs><style>.cls-2{isolation:isolate}.cls-3{fill:#6f6d6d}</style></defs><g id="Priority-Msg-_-Img-Annotation" data-name="Priority-Msg-/-Img-Annotation"><g id="_1-0-Chat" data-name="1-0-Chat"><g id="Navigation_Tab-Grey" data-name="Navigation/Tab-Grey"><path id="Container" d="M-15-8h75v50h-75z" fill="none"/><g class="cls-2"><path class="cls-3" d="M2.74 33v-7.16h1.43l1.69 5.07q.23.71.34 1.06.12-.39.38-1.15l1.71-5h1.28V33h-.91v-6l-2.08 6h-.85l-2.07-6.09V33zM14.54 31.33l.91.11a2.22 2.22 0 0 1-.8 1.24 2.39 2.39 0 0 1-1.48.44 2.37 2.37 0 0 1-1.8-.7 2.74 2.74 0 0 1-.67-2 2.87 2.87 0 0 1 .67-2 2.28 2.28 0 0 1 1.75-.72 2.22 2.22 0 0 1 1.7.71 2.81 2.81 0 0 1 .66 2v.23H11.6a2 2 0 0 0 .48 1.31 1.44 1.44 0 0 0 1.08.45 1.35 1.35 0 0 0 .83-.25 1.68 1.68 0 0 0 .55-.82zm-2.89-1.42h2.9a1.76 1.76 0 0 0-.33-1 1.35 1.35 0 0 0-1.09-.51 1.39 1.39 0 0 0-1 .41 1.61 1.61 0 0 0-.48 1.1zM20.1 31.33l.91.11a2.22 2.22 0 0 1-.8 1.24 2.39 2.39 0 0 1-1.48.44 2.37 2.37 0 0 1-1.8-.7 2.74 2.74 0 0 1-.67-2 2.87 2.87 0 0 1 .67-2 2.28 2.28 0 0 1 1.75-.72 2.22 2.22 0 0 1 1.7.71 2.81 2.81 0 0 1 .66 2v.23h-3.87a2 2 0 0 0 .48 1.31 1.44 1.44 0 0 0 1.08.45 1.35 1.35 0 0 0 .83-.25 1.68 1.68 0 0 0 .54-.82zm-2.89-1.42h2.9a1.76 1.76 0 0 0-.33-1 1.35 1.35 0 0 0-1.09-.51 1.39 1.39 0 0 0-1 .41 1.61 1.61 0 0 0-.48 1.1zM24 32.21l.13.78a3.29 3.29 0 0 1-.66.08 1.51 1.51 0 0 1-.74-.15.85.85 0 0 1-.37-.4 3.15 3.15 0 0 1-.11-1v-3h-.64v-.68h.64v-1.31l.87-.53v1.81H24v.68h-.88v3a1.55 1.55 0 0 0 0 .48.37.37 0 0 0 .15.17.59.59 0 0 0 .3.06zM24.9 26.85v-1h.88v1zm0 6.15v-5.19h.88V33zM27.11 33v-5.19h.79v.74a1.86 1.86 0 0 1 1.65-.85 2.19 2.19 0 0 1 .86.17 1.37 1.37 0 0 1 .59.44 1.7 1.7 0 0 1 .27.65 5 5 0 0 1 0 .85V33h-.88v-3.15a2.36 2.36 0 0 0-.1-.8.85.85 0 0 0-.36-.43 1.16 1.16 0 0 0-.61-.16 1.43 1.43 0 0 0-1 .36 1.76 1.76 0 0 0-.32 1.35V33zM32.51 33.43l.85.13a.81.81 0 0 0 .3.58 1.46 1.46 0 0 0 .89.24 1.57 1.57 0 0 0 .94-.24 1.2 1.2 0 0 0 .45-.68 5.53 5.53 0 0 0 .06-1.14 1.81 1.81 0 0 1-1.44.68 2 2 0 0 1-1.66-.77 3 3 0 0 1-.59-1.85 3.44 3.44 0 0 1 .3-1.38 2.15 2.15 0 0 1 .78-1 2.1 2.1 0 0 1 1.2-.34 1.86 1.86 0 0 1 1.51.74v-.62h.81v4.52a4.24 4.24 0 0 1-.25 1.7 1.8 1.8 0 0 1-.78.8 2.7 2.7 0 0 1-1.32.29 2.49 2.49 0 0 1-1.5-.42 1.41 1.41 0 0 1-.55-1.24zm.73-3.12a2.25 2.25 0 0 0 .41 1.49 1.29 1.29 0 0 0 1 .47 1.3 1.3 0 0 0 1-.47 2.18 2.18 0 0 0 .41-1.46 2.12 2.12 0 0 0-.42-1.44 1.31 1.31 0 0 0-1-.48 1.27 1.27 0 0 0-1 .48 2.12 2.12 0 0 0-.4 1.41zM37.88 31.45l.87-.14a1.22 1.22 0 0 0 .41.8 1.42 1.42 0 0 0 .94.28 1.37 1.37 0 0 0 .9-.25.74.74 0 0 0 .29-.58.53.53 0 0 0-.29-.46 3.79 3.79 0 0 0-.9-.3 8.35 8.35 0 0 1-1.34-.42 1.28 1.28 0 0 1-.76-1.19 1.33 1.33 0 0 1 .16-.64 1.43 1.43 0 0 1 .43-.49 1.81 1.81 0 0 1 .56-.26 2.66 2.66 0 0 1 .76-.11 3 3 0 0 1 1.07.18 1.45 1.45 0 0 1 .68.48 1.86 1.86 0 0 1 .3.8l-.86.12a.94.94 0 0 0-.34-.62 1.25 1.25 0 0 0-.79-.22 1.43 1.43 0 0 0-.86.2.59.59 0 0 0-.26.47.49.49 0 0 0 .11.31.77.77 0 0 0 .34.23l.78.22a10.68 10.68 0 0 1 1.3.41 1.32 1.32 0 0 1 .58.46 1.28 1.28 0 0 1 .21.75 1.47 1.47 0 0 1-.26.83 1.65 1.65 0 0 1-.74.6 2.68 2.68 0 0 1-1.09.21 2.43 2.43 0 0 1-1.54-.42 2 2 0 0 1-.66-1.25z"/></g><g class="cls-2"><path class="cls-3" d="M31.08 3a2.1 2.1 0 0 1 .75.75 2 2 0 0 1 .28 1v13.01a1.91 1.91 0 0 1-.42 1.24 1.93 1.93 0 0 1-1.08.7 33.53 33.53 0 0 1-8.12 1 33.53 33.53 0 0 1-8.12-1 1.93 1.93 0 0 1-1.08-.7 1.91 1.91 0 0 1-.42-1.21V4.81a2 2 0 0 1 .28-1A2.1 2.1 0 0 1 13.9 3a2 2 0 0 1 1-.28h3.44V1.38a.66.66 0 0 1 .2-.48.67.67 0 0 1 1 0 .66.66 0 0 1 .2.48v1.37h5.5V1.38a.66.66 0 0 1 .2-.48.67.67 0 0 1 1 0 .66.66 0 0 1 .2.48v1.37h3.44a2 2 0 0 1 1 .25zM17 11h2.75V8.25H17zm0 4.13h2.75v-2.75H17zM21.11 11h2.75V8.25h-2.75zm0 4.13h2.75v-2.75h-2.75zM25.24 11H28V8.25h-2.76z"/></g></g></g></g></svg>