<svg data-name="Layer 1" xmlns="http://www.w3.org/2000/svg" viewBox="0 0 2048 2048"><path d="M1709 83q19 19 19 45t-19 45q-19 19-45 19H512q-26 0-45-19t-19-45q0-26 19-45t45-19h1152q26 0 45 19zM667 1317q37 39 37 91 0 53-37 90-38 38-91 38-54 0-90-38-38-36-38-90 0-53 38-91 37-37 90-37 52 0 91 37zm0-640q37 39 37 91 0 53-37 90-38 38-91 38-54 0-90-38-38-36-38-90 0-53 38-91 37-37 90-37 52 0 91 37zm1042 686q19 19 19 45t-19 45q-19 19-45 19H960q-26 0-45-19t-19-45q0-26 19-45t45-19h704q26 0 45 19zM219 37q37 39 37 91 0 53-37 90-38 38-91 38-54 0-90-38-38-36-38-90 0-53 38-91Q75 0 128 0q52 0 91 37zm1490 686q19 19 19 45t-19 45q-19 19-45 19H960q-26 0-45-19t-19-45q0-26 19-45t45-19h704q26 0 45 19z"/></svg>