<svg data-name="Layer 1" xmlns="http://www.w3.org/2000/svg" viewBox="0 0 22 21.31"><path d="M6.58.13a.63.63 0 0 1 .25.33l4.84 13.85-1.07 1.07-1.32-3.69H3.09l-1.76 5a.63.63 0 0 1-.25.33.68.68 0 0 1-.4.13.66.66 0 0 1-.48-.2.66.66 0 0 1-.2-.48L.15 16l1-3 .72-2.13.79-2.32.34-.84 1.21-3.59Q5 1.81 5.31 1.03a4.93 4.93 0 0 1 .26-.61 1.36 1.36 0 0 1 .22-.29.54.54 0 0 1 .4-.13.68.68 0 0 1 .39.13zM3.57 10.31h5.24L6.19 2.78zm17.1-1.21a2.14 2.14 0 0 1 1.16 1.21 2.17 2.17 0 0 1-.47 2.36l-6.27 6.24a2.65 2.65 0 0 1-.3.93 2.8 2.8 0 0 1-.61.77 2.84 2.84 0 0 1-.84.52 2.6 2.6 0 0 1-1 .18H4.81a.69.69 0 0 1 0-1.37h3.44a1.39 1.39 0 0 0 1.27-.85 1.37 1.37 0 0 0 .1-.53 2.6 2.6 0 0 1 .18-1 2.85 2.85 0 0 1 1.28-1.45 2.65 2.65 0 0 1 .93-.3l6.28-6.27a2.16 2.16 0 0 1 2.36-.47zm-8.93 8.21a1.1 1.1 0 0 0-.41.37 1.51 1.51 0 0 0-.21.45q-.07.25-.15.64t-.16.68a2.64 2.64 0 0 1-.19.48h1.76a1.39 1.39 0 0 0 1.27-.85 1.37 1.37 0 0 0-1.27-1.9 1.4 1.4 0 0 0-.64.13zm7.54-6.78l-5.61 5.61a2.85 2.85 0 0 1 1.12 1.17l5.61-5.61a.81.81 0 0 0 .23-.56.81.81 0 0 0-.79-.79.8.8 0 0 0-.57.19z" fill="#6f6d6d"/></svg>