<svg data-name="Layer 1" xmlns="http://www.w3.org/2000/svg" viewBox="0 0 22 18" width="22" height="18"><path d="M20.73.16a2 2 0 0 1 1.11 1.09 2.07 2.07 0 0 1 .16.79v12.4a2 2 0 0 1-.6 1.45 2.12 2.12 0 0 1-.67.45 2 2 0 0 1-.79.16H2.06a2 2 0 0 1-1.45-.61A2 2 0 0 1 0 14.44V2.06a2 2 0 0 1 .16-.81A2.1 2.1 0 0 1 .61.58a2 2 0 0 1 .66-.42A2 2 0 0 1 2.06 0h17.88a2.06 2.06 0 0 1 .79.16zM2.06 1.38a.66.66 0 0 0-.48.2.66.66 0 0 0-.2.48v8.38l3.84-4.25a1.83 1.83 0 0 1 .66-.47 2 2 0 0 1 .8-.16 2.09 2.09 0 0 1 1 .23 1.93 1.93 0 0 1 .73.64l6 8.7h5.61a.7.7 0 0 0 .69-.69V2.06a.7.7 0 0 0-.69-.69zm4.15 5.75l-4.83 5.36v1.94a.66.66 0 0 0 .2.48.66.66 0 0 0 .48.2h10.6L7.25 7.25A.6.6 0 0 0 7 7a.69.69 0 0 0-.31-.08.65.65 0 0 0-.48.21zm10.66-3.48a2.72 2.72 0 0 1 1.48 1.48 2.72 2.72 0 0 1 .21 1.06 2.67 2.67 0 0 1-.21 1.06 2.78 2.78 0 0 1-1.48 1.47 2.64 2.64 0 0 1-1.06.22 2.6 2.6 0 0 1-1.05-.21 2.88 2.88 0 0 1-1.48-1.48 2.61 2.61 0 0 1-.21-1.05 2.64 2.64 0 0 1 .22-1.06 2.81 2.81 0 0 1 .6-.89 2.78 2.78 0 0 1 .88-.59 2.65 2.65 0 0 1 1.06-.21 2.7 2.7 0 0 1 1.04.2zm-1.58 1.26a1.35 1.35 0 0 0-.44.3 1.37 1.37 0 0 0-.3 1.51 1.47 1.47 0 0 0 .74.74 1.38 1.38 0 0 0 1.8-.74 1.38 1.38 0 0 0-1.8-1.8z" fill="#6f6d6d"/></svg>