<svg data-name="Layer 1" xmlns="http://www.w3.org/2000/svg" viewBox="0 0 18 22" width="18" height="22"><path d="M15.02.31a3.88 3.88 0 0 1 1.21.81 3.79 3.79 0 0 1 .81 1.19 3.62 3.62 0 0 1 .29 1.43 3.83 3.83 0 0 1-.29 1.45 4 4 0 0 1-.8 1.25l-8 8.33a.6.6 0 0 1-.47.19.67.67 0 0 1-.48-.2.64.64 0 0 1-.2-.48.71.71 0 0 1 .2-.5l7.93-8.29a2.49 2.49 0 0 0 .71-1.75 2.26 2.26 0 0 0-.19-.91 2.47 2.47 0 0 0-.52-.76 2.38 2.38 0 0 0-.78-.5 2.48 2.48 0 0 0-1.84 0 2.09 2.09 0 0 0-.76.51l-9.17 9.56a4.73 4.73 0 0 0-1 1.48 4.47 4.47 0 0 0-.34 1.71 4.24 4.24 0 0 0 .35 1.69 4.52 4.52 0 0 0 1 1.42 4.45 4.45 0 0 0 1.42 1 4.31 4.31 0 0 0 1.7.34 4.38 4.38 0 0 0 1.7-.34 4.53 4.53 0 0 0 1.45-1l6.55-6.49a.66.66 0 0 1 .48-.19.68.68 0 0 1 .48 1.17l-6.53 6.5a5.88 5.88 0 0 1-1.9 1.25 5.75 5.75 0 0 1-2.22.45 5.58 5.58 0 0 1-2.22-.45 5.88 5.88 0 0 1-1.87-1.27 6 6 0 0 1-1.26-1.85A5.49 5.49 0 0 1 0 14.84a6 6 0 0 1 1.69-4.16l9.24-9.58a3.37 3.37 0 0 1 1.2-.79A3.84 3.84 0 0 1 13.58 0a3.63 3.63 0 0 1 1.44.31z" fill="#6f6d6d"/></svg>