<svg xmlns="http://www.w3.org/2000/svg" viewBox="0 0 2048 2048"><path d="M1952 666q44 26 70 70t26 96v768q0 52-26 96t-70 70-96 26H704q-52 0-96-26t-70-70-26-96V832q0-52 26-96t70-70 96-26h1152q52 0 96 26zm-179-173q19-19 19-45t-19-45-45-19H448q-52 0-96 26t-70 70-26 96v896q0 26 19 45t45 19 45-19 19-45V576q0-26 19-45t45-19h1280q26 0 45-19zm-256-256q19-19 19-45t-19-45-45-19H192q-52 0-96 26t-70 70-26 96v896q0 26 19 45t45 19 45-19 19-45V320q0-26 19-45t45-19h1280q26 0 45-19zm188.5 668.5q48.5 28.5 77 77T1811 1088q0 58-28.5 106t-76.5 76.5-106 28.5-106-28.5-76.5-76.5-28.5-106q0-57 28.5-105.5t77-77T1600 877t105.5 28.5zM1677 1165q32-32 32-77t-32-77-77-32-77 32-32 77 32 77 77 32 77-32zm224-378q-19-19-45-19H704q-26 0-45 19t-19 45v478l184-214q26-30 61-46.5t75-16.5 75 16.5 61 46.5l482 568h278q26 0 45-19t19-45V832q0-26-19-45zM659 1645q19 19 45 19h740l-426-501q-10-13-25.5-20t-32.5-7q-35 0-59 27l-261 304v133q0 26 19 45z"/></svg>