<svg data-name="Layer 1" xmlns="http://www.w3.org/2000/svg" viewBox="0 0 2048 1664"><path d="M1952 538a195.67 195.67 0 0 1 70 70q26 44 26 96v768q0 52-26 96a195.67 195.67 0 0 1-70 70q-44 26-96 26H704q-52 0-96-26a195.67 195.67 0 0 1-70-70q-26-44-26-96V704q0-52 26-96a195.67 195.67 0 0 1 70-70q44-26 96-26h1152q52 0 96 26zm-179-173q19-19 19-45t-19-45q-19-19-45-19H448q-52 0-96 26a195.67 195.67 0 0 0-70 70q-26 44-26 96v896q0 26 19 45t45 19q26 0 45-19t19-45V448q0-26 19-45t45-19h1280q26 0 45-19zm-256-256q19-19 19-45t-19-45q-19-19-45-19H192q-52 0-96 26a195.67 195.67 0 0 0-70 70Q0 140 0 192v896q0 26 19 45t45 19q26 0 45-19t19-45V192q0-26 19-45t45-19h1280q26 0 45-19zm188.5 668.5a213.16 213.16 0 0 1 77 77Q1811 903 1811 960q0 58-28.5 106a215.66 215.66 0 0 1-76.5 76.5q-48 28.5-106 28.5t-106-28.5a215.66 215.66 0 0 1-76.5-76.5q-28.5-48-28.5-106 0-57 28.5-105.5a213.16 213.16 0 0 1 77-77Q1543 749 1600 749t105.5 28.5zM1677 1037q32-32 32-77t-32-77q-32-32-77-32t-77 32q-32 32-32 77t32 77q32 32 77 32t77-32zm224-378q-19-19-45-19H704q-26 0-45 19t-19 45v478l184-214a183.68 183.68 0 0 1 61-46.5 178.7 178.7 0 0 1 150 0 183.68 183.68 0 0 1 61 46.5l482 568h278q26 0 45-19t19-45V704q0-26-19-45zM659 1517q19 19 45 19h740l-426-501a65.72 65.72 0 0 0-25.5-20 78.09 78.09 0 0 0-32.5-7q-35 0-59 27l-261 304v133q0 26 19 45z"/></svg>