<svg data-name="Layer 1" xmlns="http://www.w3.org/2000/svg" viewBox="0 0 1280 1916"><path d="M886.5 49.5a648.14 648.14 0 0 1 344 344Q1280 510 1280 640q0 151-68 285-68 136-188 226v658q0 43-28 74-29 32-72 32a95.59 95.59 0 0 1-40.5-9 94 94 0 0 1-33.5-26l-210-252-210 252a99.31 99.31 0 0 1-33.5 26.5 91.4 91.4 0 0 1-40.5 9.5q-41 0-71-33a94.9 94.9 0 0 1-21.5-33.5 111.87 111.87 0 0 1-7.5-40.5v-658q-120-90-188-226Q0 791 0 640q0-130 49.5-246.5a648.14 648.14 0 0 1 344-344Q510 0 640 0t246.5 49.5zM640 1280q-131 0-256-54v509l182-218q28-34 74-34t74 34l182 218v-509q-125 54-256 54zM443 167.5A513.78 513.78 0 0 0 279 278a519.13 519.13 0 0 0-111 164.5Q128 536 128 640t40 197.5Q208 931 279 1001q70 71 163.5 111t197.5 40q104 0 197.5-40a519.13 519.13 0 0 0 164.5-111 513.78 513.78 0 0 0 110.5-164q39.5-93 39.5-197t-39.5-197.5a514.23 514.23 0 0 0-275-275Q744 128 640 128t-197 39.5z"/></svg>