<svg data-name="Layer 1" xmlns="http://www.w3.org/2000/svg" viewBox="0 0 12 12"><path d="M7.57.21a6 6 0 0 1 4.22 4.22A5.89 5.89 0 0 1 12 6a5.81 5.81 0 0 1-.21 1.57 6.23 6.23 0 0 1-.61 1.44 6.06 6.06 0 0 1-.94 1.22 6 6 0 0 1-1.21.94 6.07 6.07 0 0 1-1.45.61 5.91 5.91 0 0 1-3.15 0 6.08 6.08 0 0 1-1.44-.61A5.94 5.94 0 0 1 .82 9.02a6.08 6.08 0 0 1-.61-1.45 5.9 5.9 0 0 1 0-3.15 6.07 6.07 0 0 1 .61-1.45 6 6 0 0 1 .94-1.21A6.06 6.06 0 0 1 2.98.82 6.23 6.23 0 0 1 4.42.21 5.81 5.81 0 0 1 6 0a5.89 5.89 0 0 1 1.57.21zM4.75 1.43a4.77 4.77 0 0 0-1.11.48 4.51 4.51 0 0 0-1 .79 4.93 4.93 0 0 0-.74 1 4.75 4.75 0 0 0-.48 1.14 4.7 4.7 0 0 0 0 2.48 4.75 4.75 0 0 0 .48 1.14 4.56 4.56 0 0 0 .74 1 4.85 4.85 0 0 0 1 .74 4.75 4.75 0 0 0 1.14.48 4.71 4.71 0 0 0 2.48 0 4.75 4.75 0 0 0 1.14-.48 4.93 4.93 0 0 0 1-.74 4.51 4.51 0 0 0 .74-1 4.77 4.77 0 0 0 .48-1.14 4.73 4.73 0 0 0 0-2.49 4.77 4.77 0 0 0-.48-1.14 4.58 4.58 0 0 0-.74-1 4.87 4.87 0 0 0-1-.74 4.77 4.77 0 0 0-1.16-.52 4.73 4.73 0 0 0-2.49 0zm3.43 2.88a.58.58 0 0 1 .3.3.52.52 0 0 1 0 .21.54.54 0 0 1-.16.4L5.85 7.76a.57.57 0 0 1-.8 0L3.91 6.61a.54.54 0 0 1-.16-.4.52.52 0 0 1 0-.21.58.58 0 0 1 .3-.3.52.52 0 0 1 .21 0 .54.54 0 0 1 .39.16l.76.75 2.16-2.18a.54.54 0 0 1 .4-.16.52.52 0 0 1 .21.04z" fill="#6264a7"/></svg>