<svg data-name="Layer 1" xmlns="http://www.w3.org/2000/svg" viewBox="0 0 20.63 20.63"><path d="M10.94.61a8 8 0 0 1 4.25 4.25 7.77 7.77 0 0 1 0 6.06 8 8 0 0 1-1.72 2.54 8.08 8.08 0 0 1-2.55 1.72 7.73 7.73 0 0 1-6.05 0 8.17 8.17 0 0 1-4.26-4.27 7.72 7.72 0 0 1 0-6.05A8.12 8.12 0 0 1 4.88.61a7.77 7.77 0 0 1 6.06 0zM5.41 1.88a6.73 6.73 0 0 0-3.53 3.53 6.37 6.37 0 0 0 0 5 6.73 6.73 0 0 0 3.52 3.52 6.37 6.37 0 0 0 5 0 6.73 6.73 0 0 0 3.52-3.52 6.36 6.36 0 0 0 0-5 6.73 6.73 0 0 0-3.52-3.52 6.37 6.37 0 0 0-5 0zm8.14 10.69l6.88 6.88a.707.707 0 1 1-1 1l-6.87-6.87a.707.707 0 1 1 1-1z" fill="#6264a7"/></svg>