<svg data-name="Layer 1" xmlns="http://www.w3.org/2000/svg" viewBox="0 0 1408 1984"><path d="M1175 574q26 2 41 2a179.91 179.91 0 0 1 72.5 15A195.58 195.58 0 0 1 1393 695.5a179.91 179.91 0 0 1 15 72.5v1024a179.91 179.91 0 0 1-15 72.5 197.89 197.89 0 0 1-42 61.5 201.68 201.68 0 0 1-62.5 43 179.91 179.91 0 0 1-72.5 15H192a179.91 179.91 0 0 1-72.5-15 190.17 190.17 0 0 1-61.5-43 190.17 190.17 0 0 1-43-61.5A179.91 179.91 0 0 1 0 1792V768a179.91 179.91 0 0 1 15-72.5A201.68 201.68 0 0 1 58 633a197.89 197.89 0 0 1 61.5-42 179.91 179.91 0 0 1 72.5-15q14 0 42-2t42-2q46 0 71 12 37 18 37 56 0 54-60 63-21 4-53 2-38-2-48-2-39 0-64 11-31 15-31 54v1024q0 26 19 45t45 19h1024q26 0 45-19t19-45V768q0-54-60-63-21-4-53-2-38 2-48 2-40 0-64-12-31-14-31-53t38-56q26-12 71-12 14 0 42 2zM750 20l316 319q18 20 18 45 0 26-19 45t-45 19q-26 0-45-19L768 220v1060q0 26-19 45t-45 19q-26 0-45-19t-19-45V218L429 429q-19 19-45 19t-45-19q-19-19-19-45t19-45L658 19q19-19 50-19 22 0 42 20z"/></svg>