<svg xmlns="http://www.w3.org/2000/svg" viewBox="0 0 2048 2048"><path d="M1558 638q26 2 41 2 38 0 72.5 15t62.5 42q27 28 42 62.5t15 72.5v1024q0 38-15 72.5t-42 61.5q-28 28-62.5 43t-72.5 15H575q-38 0-72.5-15t-61.5-43q-28-27-43-61.5t-15-72.5V832q0-38 15-72.5t43-62.5q27-27 61.5-42t72.5-15q14 0 42-2t42-2q46 0 71 12 37 18 37 56 0 54-60 63-21 4-53 2-38-2-48-2-39 0-64 11-31 15-31 54v1024q0 26 19 45t45 19h1024q26 0 45-19t19-45V832q0-54-60-63-21-4-53-2-38 2-48 2-40 0-64-12-31-14-31-53t38-56q26-12 71-12 14 0 42 2zM1133 84l316 319q18 20 18 45 0 26-19 45t-45 19-45-19l-207-209v1060q0 26-19 45t-45 19-45-19-19-45V282L812 493q-19 19-45 19t-45-19-19-45 19-45l319-320q19-19 50-19 22 0 42 20z"/></svg>