<svg xmlns="http://www.w3.org/2000/svg" viewBox="0 0 2048 2048">
    <path d="M1288.5 399q34.5 15 62.5 42 27 28 42 62.5t15 72.5v896q0 38-15 72.5t-42 61.5q-28 28-62.5 43t-72.5 15H233q-104 0-163-109-44-81-61-233-9-82-9-215V941q0-134 9-216 17-150 61-233 59-108 163-108h983q38 0 72.5 15zM233 512q-50 0-77 114-19 82-25 229-3 57-3 102v133q0 110 11 220 11 131 48 194 18 32 46 32h983q26 0 45-19t19-45V576q0-26-19-45t-45-19H233zm1796 19q19 19 19 45v896q0 26-19 45t-45 19-44-18l-324-309q-38-36-59-84.5t-21-100.5 21-100.5 59-84.5l324-309q18-18 44-18t45 19zm-325 401q-19 17-29.5 41.5T1664 1024t10.5 50.5 29.5 41.5l216 206V726z"/>
</svg>