<svg data-name="Layer 1" xmlns="http://www.w3.org/2000/svg" viewBox="0 0 20.63 16.5"><path d="M3.93.25a.66.66 0 0 1 .2.48v3.4h2.06a.69.69 0 0 1 0 1.38H.69a.66.66 0 0 1-.48-.26.67.67 0 0 1 0-1 .66.66 0 0 1 .48-.2h2.06V.69a.66.66 0 0 1 .21-.44.67.67 0 0 1 1 0zm.2 15.61a.68.68 0 0 1-1.17.39.66.66 0 0 1-.2-.48V6.88h1.37zM10.8.25a.66.66 0 0 1 .2.48V11h2.06a.69.69 0 0 1 0 1.38H7.57a.69.69 0 0 1 0-1.37h2.07V.69a.66.66 0 0 1 .2-.48.67.67 0 0 1 1 0zm.2 15.61a.69.69 0 0 1-1.37 0v-2.11H11zM17.64.25a.66.66 0 0 1 .2.48v6.15h2.1a.69.69 0 0 1 0 1.37h-5.5a.69.69 0 0 1 0-1.37h2.06V.69a.66.66 0 0 1 .2-.48.67.67 0 0 1 1 0zm.2 15.61a.69.69 0 0 1-1.37 0V9.63h1.38z" fill="#6264a7"/></svg>