<svg data-name="Layer 1" xmlns="http://www.w3.org/2000/svg" viewBox="0 0 1792 1792"><path d="M1614.5 22.5a293.74 293.74 0 0 1 155 155A277.6 277.6 0 0 1 1792 288a280.56 280.56 0 0 1-22 109.5 309.52 309.52 0 0 1-62 94.5L557 1645q-4 4-40 18-90 32-197 63-126 38-205 56-39 10-51 10-26 0-45-19t-19-45q0-13 10-50 19-84 56-206 31-107 63-197 14-36 18-40L1300 84a309.52 309.52 0 0 1 94.5-62A280.56 280.56 0 0 1 1504 0a277.6 277.6 0 0 1 110.5 22.5zM157 1635l286-82q-13-75-71-133t-133-71zm166-395q79 29 139.5 89.5T552 1469l892-894-227-227zM1391 175l-45-45 45 45-83 82 227 227 82-83 45 45-45-45q47-47 47-113a148.61 148.61 0 0 0-13-60.5 166.16 166.16 0 0 0-86.5-86.5 148.61 148.61 0 0 0-60.5-13q-66 0-113 47z"/></svg>