<svg xmlns="http://www.w3.org/2000/svg" viewBox="0 0 2048 2048"><path d="M1741.5 150.5Q1794 173 1834 213t62.5 92.5T1919 416q0 57-22 109.5t-62 94.5L684 1773q-4 4-40 18-90 32-197 63-126 38-205 56-39 10-51 10-26 0-45-19t-19-45q0-13 10-50 19-84 56-206 31-107 63-197 14-36 18-40L1427 212q42-40 94.5-62t109.5-22q58 0 110.5 22.5zM284 1763l286-82q-13-75-71-133t-133-71zm166-395q79 29 139.5 89.5T679 1597l892-894-227-227zM1518 303l-45-45 45 45-83 82 227 227 82-83 45 45-45-45q47-47 47-113 0-31-13-60.5t-35-51.5-51.5-35-60.5-13q-66 0-113 47z"/></svg>