<svg xmlns="http://www.w3.org/2000/svg" viewBox="0 0 20 20"><path d="M7.3 18.5l3.7-.7c.2 1-.5 2-1.5 2.2-1.1.2-2-.5-2.2-1.5zm-5.8-.1l14.7-2.9c.3-.1.6-.3.8-.5.2-.3.3-.6.2-.9-.1-.7-.8-1.1-1.5-1-.3.1-.7 0-.9-.2-.3-.2-.5-.5-.5-.8l-1-4.9c-.3-1.6-1.3-3-2.7-4-1.4-1-3.1-1.3-4.7-1-3.4.7-5.6 4-4.9 7.4l1 4.9c.1.7-.3 1.3-1 1.5-.3.1-.6.3-.8.5-.2.2-.2.6-.2.9.1.6.6 1 1.2 1h.3zm15.2-10c0-2-.6-4-1.8-5.6-.2-.3-.6-.3-.9-.1-.3.2-.3.6-.1.9 1 1.4 1.6 3.1 1.6 4.9 0 .3.3.6.6.6s.6-.4.6-.7zm3.3 0c0-3-1-5.8-2.9-8.1-.2-.3-.6-.3-.9-.1-.3.2-.3.6-.1.9 1.7 2.1 2.6 4.6 2.6 7.3 0 .3.3.6.6.6s.7-.3.7-.6z" fill="#fff"/></svg>