<svg xmlns="http://www.w3.org/2000/svg" viewBox="0 0 16 16" width="16" height="16"><path d="M5.7 14.8l2.9-.6c.2.8-.4 1.6-1.2 1.8s-1.5-.4-1.7-1.2zm-4.5-.1l11.6-2.4c.3-.1.5-.2.6-.4.1-.2.2-.5.1-.8-.1-.5-.6-.9-1.2-.8-.3.1-.5 0-.7-.1-.2-.1-.4-.4-.4-.6l-.8-3.9c-.3-1.3-1-2.4-2.1-3.2-1.1-.7-2.4-1-3.7-.8C1.9 2.2.2 4.9.7 7.6l.8 3.9c.1.5-.2 1.1-.8 1.2-.3.1-.5.2-.6.4-.1.3-.1.6-.1.8.1.5.5.8 1 .8h.2zm11.9-8c0-1.6-.5-3.2-1.4-4.5-.2-.2-.5-.3-.7-.1-.2.2-.3.5-.1.7.8 1.1 1.2 2.5 1.2 3.9 0 .3.2.5.5.5s.5-.2.5-.5zm2.7 0c0-2.4-.8-4.6-2.3-6.5-.2-.2-.5-.2-.7-.1-.2.2-.2.5-.1.7 1.4 1.7 2.1 3.7 2.1 5.9 0 .3.2.5.5.5s.5-.2.5-.5z" fill="#c4314b"/></svg>